<?xml version="1.0" encoding="UTF-8" standalone="no"?>
<!DOCTYPE svg PUBLIC "-//W3C//DTD SVG 1.1//EN"
 "http://www.w3.org/Graphics/SVG/1.1/DTD/svg11.dtd">
<!-- Generated by graphviz version 2.40.1 (20161225.0304)
 -->
<!-- Title: models_diagram Pages: 1 -->
<svg width="1297pt" height="850pt"
 viewBox="0.00 0.00 1296.75 849.96" xmlns="http://www.w3.org/2000/svg" xmlns:xlink="http://www.w3.org/1999/xlink">
<g id="graph0" class="graph" transform="scale(1 1) rotate(0) translate(36 813.9605)">
<title>models_diagram</title>
<polygon fill="#ffffff" stroke="transparent" points="-36,36 -36,-813.9605 1260.7478,-813.9605 1260.7478,36 -36,36"/>
<!-- Downvotes -->
<g id="node1" class="node">
<title>Downvotes</title>
<polygon fill="#add8e6" stroke="transparent" points="226.2228,-222.7718 226.2228,-244.7718 325.2228,-244.7718 325.2228,-222.7718 226.2228,-222.7718"/>
<polygon fill="none" stroke="#000000" points="226.2228,-222.7718 226.2228,-244.7718 325.2228,-244.7718 325.2228,-222.7718 226.2228,-222.7718"/>
<text text-anchor="start" x="252.9503" y="-230.7718" font-family="Times,serif" font-size="10.00" fill="#000000">Downvotes</text>
<polygon fill="none" stroke="#000000" points="226.2228,-200.7718 226.2228,-222.7718 325.2228,-222.7718 325.2228,-200.7718 226.2228,-200.7718"/>
<text text-anchor="start" x="231.2228" y="-208.7718" font-family="Times,serif" font-size="10.00" fill="#000000">id: UUID</text>
<polygon fill="none" stroke="#000000" points="226.2228,-178.7718 226.2228,-200.7718 325.2228,-200.7718 325.2228,-178.7718 226.2228,-178.7718"/>
<text text-anchor="start" x="231.2228" y="-186.7718" font-family="Times,serif" font-size="10.00" fill="#000000">userId: UUID</text>
<polygon fill="none" stroke="#000000" points="226.2228,-156.7718 226.2228,-178.7718 325.2228,-178.7718 325.2228,-156.7718 226.2228,-156.7718"/>
<text text-anchor="start" x="231.1548" y="-164.7718" font-family="Times,serif" font-size="10.00" fill="#000000">learningPathId: UUID</text>
<polygon fill="none" stroke="#000000" points="226.2228,-134.7718 226.2228,-156.7718 325.2228,-156.7718 325.2228,-134.7718 226.2228,-134.7718"/>
<text text-anchor="start" x="231.2228" y="-142.7718" font-family="Times,serif" font-size="10.00" fill="#000000">createdAt: DATE</text>
<polygon fill="none" stroke="#000000" points="226.2228,-112.7718 226.2228,-134.7718 325.2228,-134.7718 325.2228,-112.7718 226.2228,-112.7718"/>
<text text-anchor="start" x="231.2228" y="-120.7718" font-family="Times,serif" font-size="10.00" fill="#000000">updatedAt: DATE</text>
<polygon fill="none" stroke="#000000" points="226.2228,-90.7718 226.2228,-112.7718 325.2228,-112.7718 325.2228,-90.7718 226.2228,-90.7718"/>
<text text-anchor="start" x="231.2228" y="-98.7718" font-family="Times,serif" font-size="10.00" fill="#000000">UserId: UUID</text>
</g>
<!-- LearningPath -->
<g id="node5" class="node">
<title>LearningPath</title>
<polygon fill="#add8e6" stroke="transparent" points="224.2228,-560.5154 224.2228,-582.5154 327.2228,-582.5154 327.2228,-560.5154 224.2228,-560.5154"/>
<polygon fill="none" stroke="#000000" points="224.2228,-560.5154 224.2228,-582.5154 327.2228,-582.5154 327.2228,-560.5154 224.2228,-560.5154"/>
<text text-anchor="start" x="248.7868" y="-568.5154" font-family="Times,serif" font-size="10.00" fill="#000000">LearningPath</text>
<polygon fill="none" stroke="#000000" points="224.2228,-538.5154 224.2228,-560.5154 327.2228,-560.5154 327.2228,-538.5154 224.2228,-538.5154"/>
<text text-anchor="start" x="229.2228" y="-546.5154" font-family="Times,serif" font-size="10.00" fill="#000000">id: UUID</text>
<polygon fill="none" stroke="#000000" points="224.2228,-516.5154 224.2228,-538.5154 327.2228,-538.5154 327.2228,-516.5154 224.2228,-516.5154"/>
<text text-anchor="start" x="229.2228" y="-524.5154" font-family="Times,serif" font-size="10.00" fill="#000000">name: STRING</text>
<polygon fill="none" stroke="#000000" points="224.2228,-494.5154 224.2228,-516.5154 327.2228,-516.5154 327.2228,-494.5154 224.2228,-494.5154"/>
<text text-anchor="start" x="229.2228" y="-502.5154" font-family="Times,serif" font-size="10.00" fill="#000000">description: TEXT</text>
<polygon fill="none" stroke="#000000" points="224.2228,-472.5154 224.2228,-494.5154 327.2228,-494.5154 327.2228,-472.5154 224.2228,-472.5154"/>
<text text-anchor="start" x="229.2228" y="-480.5154" font-family="Times,serif" font-size="10.00" fill="#000000">difficulty: STRING</text>
<polygon fill="none" stroke="#000000" points="224.2228,-450.5154 224.2228,-472.5154 327.2228,-472.5154 327.2228,-450.5154 224.2228,-450.5154"/>
<text text-anchor="start" x="229.2228" y="-458.5154" font-family="Times,serif" font-size="10.00" fill="#000000">upVotes: NUMBER</text>
<polygon fill="none" stroke="#000000" points="224.2228,-428.5154 224.2228,-450.5154 327.2228,-450.5154 327.2228,-428.5154 224.2228,-428.5154"/>
<text text-anchor="start" x="228.9238" y="-436.5154" font-family="Times,serif" font-size="10.00" fill="#000000">downVotes: NUMBER</text>
<polygon fill="none" stroke="#000000" points="224.2228,-406.5154 224.2228,-428.5154 327.2228,-428.5154 327.2228,-406.5154 224.2228,-406.5154"/>
<text text-anchor="start" x="229.2228" y="-414.5154" font-family="Times,serif" font-size="10.00" fill="#000000">userId: UUID</text>
<polygon fill="none" stroke="#000000" points="224.2228,-384.5154 224.2228,-406.5154 327.2228,-406.5154 327.2228,-384.5154 224.2228,-384.5154"/>
<text text-anchor="start" x="229.2228" y="-392.5154" font-family="Times,serif" font-size="10.00" fill="#000000">createdAt: DATE</text>
<polygon fill="none" stroke="#000000" points="224.2228,-362.5154 224.2228,-384.5154 327.2228,-384.5154 327.2228,-362.5154 224.2228,-362.5154"/>
<text text-anchor="start" x="229.2228" y="-370.5154" font-family="Times,serif" font-size="10.00" fill="#000000">updatedAt: DATE</text>
<polygon fill="none" stroke="#000000" points="224.2228,-340.5154 224.2228,-362.5154 327.2228,-362.5154 327.2228,-340.5154 224.2228,-340.5154"/>
<text text-anchor="start" x="229.2228" y="-348.5154" font-family="Times,serif" font-size="10.00" fill="#000000">UserId: UUID</text>
</g>
<!-- Downvotes&#45;&gt;LearningPath -->
<g id="edge1" class="edge">
<title>Downvotes&#45;&gt;LearningPath</title>
<path fill="none" stroke="#000000" stroke-width=".75" d="M275.2228,-251.1672C275.2228,-278.8632 275.2228,-310.2882 275.2228,-340.2466"/>
<polygon fill="#000000" stroke="#000000" stroke-width=".75" points="275.2229,-250.9495 277.9228,-244.9494 275.2229,-247.9495 275.2228,-244.9495 275.2228,-244.9495 275.2228,-244.9495 275.2229,-247.9495 272.5228,-244.9495 275.2229,-250.9495 275.2229,-250.9495"/>
</g>
<!-- User -->
<g id="node9" class="node">
<title>User</title>
<polygon fill="#add8e6" stroke="transparent" points="673.2478,-413.6436 673.2478,-435.6436 782.2478,-435.6436 782.2478,-413.6436 673.2478,-413.6436"/>
<polygon fill="none" stroke="#000000" points="673.2478,-413.6436 673.2478,-435.6436 782.2478,-435.6436 782.2478,-413.6436 673.2478,-413.6436"/>
<text text-anchor="start" x="718.3098" y="-421.6436" font-family="Times,serif" font-size="10.00" fill="#000000">User</text>
<polygon fill="none" stroke="#000000" points="673.2478,-391.6436 673.2478,-413.6436 782.2478,-413.6436 782.2478,-391.6436 673.2478,-391.6436"/>
<text text-anchor="start" x="678.2478" y="-399.6436" font-family="Times,serif" font-size="10.00" fill="#000000">id: UUID</text>
<polygon fill="none" stroke="#000000" points="673.2478,-369.6436 673.2478,-391.6436 782.2478,-391.6436 782.2478,-369.6436 673.2478,-369.6436"/>
<text text-anchor="start" x="678.2478" y="-377.6436" font-family="Times,serif" font-size="10.00" fill="#000000">email: STRING</text>
<polygon fill="none" stroke="#000000" points="673.2478,-347.6436 673.2478,-369.6436 782.2478,-369.6436 782.2478,-347.6436 673.2478,-347.6436"/>
<text text-anchor="start" x="678.2478" y="-355.6436" font-family="Times,serif" font-size="10.00" fill="#000000">firstName: STRING</text>
<polygon fill="none" stroke="#000000" points="673.2478,-325.6436 673.2478,-347.6436 782.2478,-347.6436 782.2478,-325.6436 673.2478,-325.6436"/>
<text text-anchor="start" x="678.2478" y="-333.6436" font-family="Times,serif" font-size="10.00" fill="#000000">lastName: STRING</text>
<polygon fill="none" stroke="#000000" points="673.2478,-303.6436 673.2478,-325.6436 782.2478,-325.6436 782.2478,-303.6436 673.2478,-303.6436"/>
<text text-anchor="start" x="678.2478" y="-311.6436" font-family="Times,serif" font-size="10.00" fill="#000000">profilePicture: STRING</text>
<polygon fill="none" stroke="#000000" points="673.2478,-281.6436 673.2478,-303.6436 782.2478,-303.6436 782.2478,-281.6436 673.2478,-281.6436"/>
<text text-anchor="start" x="678.2478" y="-289.6436" font-family="Times,serif" font-size="10.00" fill="#000000">googleId: STRING</text>
<polygon fill="none" stroke="#000000" points="673.2478,-259.6436 673.2478,-281.6436 782.2478,-281.6436 782.2478,-259.6436 673.2478,-259.6436"/>
<text text-anchor="start" x="678.2478" y="-267.6436" font-family="Times,serif" font-size="10.00" fill="#000000">facebookId: STRING</text>
<polygon fill="none" stroke="#000000" points="673.2478,-237.6436 673.2478,-259.6436 782.2478,-259.6436 782.2478,-237.6436 673.2478,-237.6436"/>
<text text-anchor="start" x="677.9003" y="-245.6436" font-family="Times,serif" font-size="10.00" fill="#000000">passwordHash: STRING</text>
<polygon fill="none" stroke="#000000" points="673.2478,-215.6436 673.2478,-237.6436 782.2478,-237.6436 782.2478,-215.6436 673.2478,-215.6436"/>
<text text-anchor="start" x="678.2478" y="-223.6436" font-family="Times,serif" font-size="10.00" fill="#000000">createdAt: DATE</text>
<polygon fill="none" stroke="#000000" points="673.2478,-193.6436 673.2478,-215.6436 782.2478,-215.6436 782.2478,-193.6436 673.2478,-193.6436"/>
<text text-anchor="start" x="678.2478" y="-201.6436" font-family="Times,serif" font-size="10.00" fill="#000000">updatedAt: DATE</text>
</g>
<!-- Downvotes&#45;&gt;User -->
<g id="edge2" class="edge">
<title>Downvotes&#45;&gt;User</title>
<path fill="none" stroke="#000000" stroke-width=".75" d="M330.7711,-185.8205C417.9681,-214.1525 585.94,-268.7299 672.586,-296.8829"/>
<polygon fill="#000000" stroke="#000000" stroke-width=".75" points="330.5968,-185.7639 325.7248,-181.3419 327.7436,-184.8368 324.8905,-183.9098 324.8905,-183.9098 324.8905,-183.9098 327.7436,-184.8368 324.0561,-186.4776 330.5968,-185.7639 330.5968,-185.7639"/>
</g>
<!-- Favorites -->
<g id="node2" class="node">
<title>Favorites</title>
<polygon fill="#add8e6" stroke="transparent" points="503.5896,-618.2872 503.5896,-640.2872 605.5896,-640.2872 605.5896,-618.2872 503.5896,-618.2872"/>
<polygon fill="none" stroke="#000000" points="503.5896,-618.2872 503.5896,-640.2872 605.5896,-640.2872 605.5896,-618.2872 503.5896,-618.2872"/>
<text text-anchor="start" x="535.9831" y="-626.2872" font-family="Times,serif" font-size="10.00" fill="#000000">Favorites</text>
<polygon fill="none" stroke="#000000" points="503.5896,-596.2872 503.5896,-618.2872 605.5896,-618.2872 605.5896,-596.2872 503.5896,-596.2872"/>
<text text-anchor="start" x="508.5896" y="-604.2872" font-family="Times,serif" font-size="10.00" fill="#000000">id: UUID</text>
<polygon fill="none" stroke="#000000" points="503.5896,-574.2872 503.5896,-596.2872 605.5896,-596.2872 605.5896,-574.2872 503.5896,-574.2872"/>
<text text-anchor="start" x="508.5896" y="-582.2872" font-family="Times,serif" font-size="10.00" fill="#000000">userId: UUID</text>
<polygon fill="none" stroke="#000000" points="503.5896,-552.2872 503.5896,-574.2872 605.5896,-574.2872 605.5896,-552.2872 503.5896,-552.2872"/>
<text text-anchor="start" x="508.5896" y="-560.2872" font-family="Times,serif" font-size="10.00" fill="#000000">learningPathId: UUID</text>
<polygon fill="none" stroke="#000000" points="503.5896,-530.2872 503.5896,-552.2872 605.5896,-552.2872 605.5896,-530.2872 503.5896,-530.2872"/>
<text text-anchor="start" x="508.5896" y="-538.2872" font-family="Times,serif" font-size="10.00" fill="#000000">createdAt: DATE</text>
<polygon fill="none" stroke="#000000" points="503.5896,-508.2872 503.5896,-530.2872 605.5896,-530.2872 605.5896,-508.2872 503.5896,-508.2872"/>
<text text-anchor="start" x="508.5896" y="-516.2872" font-family="Times,serif" font-size="10.00" fill="#000000">updatedAt: DATE</text>
<polygon fill="none" stroke="#000000" points="503.5896,-486.2872 503.5896,-508.2872 605.5896,-508.2872 605.5896,-486.2872 503.5896,-486.2872"/>
<text text-anchor="start" x="508.3566" y="-494.2872" font-family="Times,serif" font-size="10.00" fill="#000000">LearningPathId: UUID</text>
<polygon fill="none" stroke="#000000" points="503.5896,-464.2872 503.5896,-486.2872 605.5896,-486.2872 605.5896,-464.2872 503.5896,-464.2872"/>
<text text-anchor="start" x="508.5896" y="-472.2872" font-family="Times,serif" font-size="10.00" fill="#000000">UserId: UUID</text>
</g>
<!-- Favorites&#45;&gt;LearningPath -->
<g id="edge3" class="edge">
<title>Favorites&#45;&gt;LearningPath</title>
<path fill="none" stroke="#000000" stroke-width=".75" d="M497.3644,-533.6936C447.3694,-517.4492 375.4228,-494.0724 327.0843,-478.3662"/>
<polygon fill="#000000" stroke="#000000" stroke-width=".75" points="497.6431,-533.7841 502.5151,-538.2061 500.4963,-534.7112 503.3495,-535.6382 503.3495,-535.6382 503.3495,-535.6382 500.4963,-534.7112 504.1838,-533.0704 497.6431,-533.7841 497.6431,-533.7841"/>
</g>
<!-- Favorites&#45;&gt;User -->
<g id="edge4" class="edge">
<title>Favorites&#45;&gt;User</title>
<path fill="none" stroke="#000000" stroke-width=".75" d="M609.4312,-476.8043C629.6295,-449.0037 652.4925,-417.5354 672.6677,-389.7667"/>
<polygon fill="#000000" stroke="#000000" stroke-width=".75" points="609.2187,-477.0967 603.5076,-480.3638 607.4554,-479.5238 605.692,-481.9508 605.692,-481.9508 605.692,-481.9508 607.4554,-479.5238 607.8763,-483.5379 609.2187,-477.0967 609.2187,-477.0967"/>
</g>
<!-- LearningBucket -->
<g id="node3" class="node">
<title>LearningBucket</title>
<polygon fill="#add8e6" stroke="transparent" points="856.2478,-391.6436 856.2478,-413.6436 941.2478,-413.6436 941.2478,-391.6436 856.2478,-391.6436"/>
<polygon fill="none" stroke="#000000" points="856.2478,-391.6436 856.2478,-413.6436 941.2478,-413.6436 941.2478,-391.6436 856.2478,-391.6436"/>
<text text-anchor="start" x="866.5373" y="-399.6436" font-family="Times,serif" font-size="10.00" fill="#000000">LearningBucket</text>
<polygon fill="none" stroke="#000000" points="856.2478,-369.6436 856.2478,-391.6436 941.2478,-391.6436 941.2478,-369.6436 856.2478,-369.6436"/>
<text text-anchor="start" x="861.2478" y="-377.6436" font-family="Times,serif" font-size="10.00" fill="#000000">id: UUID</text>
<polygon fill="none" stroke="#000000" points="856.2478,-347.6436 856.2478,-369.6436 941.2478,-369.6436 941.2478,-347.6436 856.2478,-347.6436"/>
<text text-anchor="start" x="861.2478" y="-355.6436" font-family="Times,serif" font-size="10.00" fill="#000000">name: STRING</text>
<polygon fill="none" stroke="#000000" points="856.2478,-325.6436 856.2478,-347.6436 941.2478,-347.6436 941.2478,-325.6436 856.2478,-325.6436"/>
<text text-anchor="start" x="861.1188" y="-333.6436" font-family="Times,serif" font-size="10.00" fill="#000000">description: TEXT</text>
<polygon fill="none" stroke="#000000" points="856.2478,-303.6436 856.2478,-325.6436 941.2478,-325.6436 941.2478,-303.6436 856.2478,-303.6436"/>
<text text-anchor="start" x="861.2478" y="-311.6436" font-family="Times,serif" font-size="10.00" fill="#000000">tags: STRING</text>
<polygon fill="none" stroke="#000000" points="856.2478,-281.6436 856.2478,-303.6436 941.2478,-303.6436 941.2478,-281.6436 856.2478,-281.6436"/>
<text text-anchor="start" x="861.2478" y="-289.6436" font-family="Times,serif" font-size="10.00" fill="#000000">userId: UUID</text>
<polygon fill="none" stroke="#000000" points="856.2478,-259.6436 856.2478,-281.6436 941.2478,-281.6436 941.2478,-259.6436 856.2478,-259.6436"/>
<text text-anchor="start" x="861.2478" y="-267.6436" font-family="Times,serif" font-size="10.00" fill="#000000">createdAt: DATE</text>
<polygon fill="none" stroke="#000000" points="856.2478,-237.6436 856.2478,-259.6436 941.2478,-259.6436 941.2478,-237.6436 856.2478,-237.6436"/>
<text text-anchor="start" x="861.2478" y="-245.6436" font-family="Times,serif" font-size="10.00" fill="#000000">updatedAt: DATE</text>
<polygon fill="none" stroke="#000000" points="856.2478,-215.6436 856.2478,-237.6436 941.2478,-237.6436 941.2478,-215.6436 856.2478,-215.6436"/>
<text text-anchor="start" x="861.2478" y="-223.6436" font-family="Times,serif" font-size="10.00" fill="#000000">UserId: UUID</text>
</g>
<!-- LearningBucket&#45;&gt;User -->
<g id="edge5" class="edge">
<title>LearningBucket&#45;&gt;User</title>
<path fill="none" stroke="#000000" stroke-width=".75" d="M849.4194,-314.6436C828.374,-314.6436 803.6713,-314.6436 782.0064,-314.6436"/>
<polygon fill="#000000" stroke="#000000" stroke-width=".75" points="849.5384,-314.6437 855.5384,-317.3436 852.5384,-314.6436 855.5384,-314.6436 855.5384,-314.6436 855.5384,-314.6436 852.5384,-314.6436 855.5384,-311.9436 849.5384,-314.6437 849.5384,-314.6437"/>
</g>
<!-- LearningBucketResource -->
<g id="node4" class="node">
<title>LearningBucketResource</title>
<polygon fill="#add8e6" stroke="transparent" points="1112.2478,-391.6436 1112.2478,-413.6436 1225.2478,-413.6436 1225.2478,-391.6436 1112.2478,-391.6436"/>
<polygon fill="none" stroke="#000000" points="1112.2478,-391.6436 1112.2478,-413.6436 1225.2478,-413.6436 1225.2478,-391.6436 1112.2478,-391.6436"/>
<text text-anchor="start" x="1117.9353" y="-399.6436" font-family="Times,serif" font-size="10.00" fill="#000000">LearningBucketResource</text>
<polygon fill="none" stroke="#000000" points="1112.2478,-369.6436 1112.2478,-391.6436 1225.2478,-391.6436 1225.2478,-369.6436 1112.2478,-369.6436"/>
<text text-anchor="start" x="1117.2478" y="-377.6436" font-family="Times,serif" font-size="10.00" fill="#000000">id: UUID</text>
<polygon fill="none" stroke="#000000" points="1112.2478,-347.6436 1112.2478,-369.6436 1225.2478,-369.6436 1225.2478,-347.6436 1112.2478,-347.6436"/>
<text text-anchor="start" x="1117.2478" y="-355.6436" font-family="Times,serif" font-size="10.00" fill="#000000">learningBucketId: UUID</text>
<polygon fill="none" stroke="#000000" points="1112.2478,-325.6436 1112.2478,-347.6436 1225.2478,-347.6436 1225.2478,-325.6436 1112.2478,-325.6436"/>
<text text-anchor="start" x="1117.2478" y="-333.6436" font-family="Times,serif" font-size="10.00" fill="#000000">url: STRING</text>
<polygon fill="none" stroke="#000000" points="1112.2478,-303.6436 1112.2478,-325.6436 1225.2478,-325.6436 1225.2478,-303.6436 1112.2478,-303.6436"/>
<text text-anchor="start" x="1117.2478" y="-311.6436" font-family="Times,serif" font-size="10.00" fill="#000000">topic: STRING</text>
<polygon fill="none" stroke="#000000" points="1112.2478,-281.6436 1112.2478,-303.6436 1225.2478,-303.6436 1225.2478,-281.6436 1112.2478,-281.6436"/>
<text text-anchor="start" x="1117.2478" y="-289.6436" font-family="Times,serif" font-size="10.00" fill="#000000">description: TEXT</text>
<polygon fill="none" stroke="#000000" points="1112.2478,-259.6436 1112.2478,-281.6436 1225.2478,-281.6436 1225.2478,-259.6436 1112.2478,-259.6436"/>
<text text-anchor="start" x="1117.2478" y="-267.6436" font-family="Times,serif" font-size="10.00" fill="#000000">createdAt: DATE</text>
<polygon fill="none" stroke="#000000" points="1112.2478,-237.6436 1112.2478,-259.6436 1225.2478,-259.6436 1225.2478,-237.6436 1112.2478,-237.6436"/>
<text text-anchor="start" x="1117.2478" y="-245.6436" font-family="Times,serif" font-size="10.00" fill="#000000">updatedAt: DATE</text>
<polygon fill="none" stroke="#000000" points="1112.2478,-215.6436 1112.2478,-237.6436 1225.2478,-237.6436 1225.2478,-215.6436 1112.2478,-215.6436"/>
<text text-anchor="start" x="1117.2403" y="-223.6436" font-family="Times,serif" font-size="10.00" fill="#000000">LearningBucketId: UUID</text>
</g>
<!-- LearningBucketResource&#45;&gt;LearningBucket -->
<g id="edge6" class="edge">
<title>LearningBucketResource&#45;&gt;LearningBucket</title>
<path fill="none" stroke="#000000" stroke-width=".75" d="M1105.584,-314.6436C1055.0638,-314.6436 985.3642,-314.6436 941.0476,-314.6436"/>
<polygon fill="#000000" stroke="#000000" stroke-width=".75" points="1105.647,-314.6437 1111.647,-317.3436 1108.647,-314.6436 1111.647,-314.6436 1111.647,-314.6436 1111.647,-314.6436 1108.647,-314.6436 1111.6469,-311.9436 1105.647,-314.6437 1105.647,-314.6437"/>
</g>
<!-- LearningPath&#45;&gt;User -->
<g id="edge7" class="edge">
<title>LearningPath&#45;&gt;User</title>
<path fill="none" stroke="#000000" stroke-width=".75" d="M333.0005,-442.7423C420.7708,-414.224 586.5505,-360.3589 672.491,-332.4352"/>
<polygon fill="#000000" stroke="#000000" stroke-width=".75" points="332.7822,-442.8132 326.2415,-442.0995 329.929,-443.7403 327.0759,-444.6673 327.0759,-444.6673 327.0759,-444.6673 329.929,-443.7403 327.9102,-447.2352 332.7822,-442.8132 332.7822,-442.8132"/>
</g>
<!-- LearningPathResource -->
<g id="node6" class="node">
<title>LearningPathResource</title>
<polygon fill="#add8e6" stroke="transparent" points="133.3837,-755.9605 133.3837,-777.9605 260.3837,-777.9605 260.3837,-755.9605 133.3837,-755.9605"/>
<polygon fill="none" stroke="#000000" points="133.3837,-755.9605 133.3837,-777.9605 260.3837,-777.9605 260.3837,-755.9605 133.3837,-755.9605"/>
<text text-anchor="start" x="151.3457" y="-763.9605" font-family="Times,serif" font-size="10.00" fill="#000000">LearningPathResource</text>
<polygon fill="none" stroke="#000000" points="133.3837,-733.9605 133.3837,-755.9605 260.3837,-755.9605 260.3837,-733.9605 133.3837,-733.9605"/>
<text text-anchor="start" x="138.3837" y="-741.9605" font-family="Times,serif" font-size="10.00" fill="#000000">id: UUID</text>
<polygon fill="none" stroke="#000000" points="133.3837,-711.9605 133.3837,-733.9605 260.3837,-733.9605 260.3837,-711.9605 133.3837,-711.9605"/>
<text text-anchor="start" x="138.3837" y="-719.9605" font-family="Times,serif" font-size="10.00" fill="#000000">learningPathId: UUID</text>
<polygon fill="none" stroke="#000000" points="133.3837,-689.9605 133.3837,-711.9605 260.3837,-711.9605 260.3837,-689.9605 133.3837,-689.9605"/>
<text text-anchor="start" x="138.3837" y="-697.9605" font-family="Times,serif" font-size="10.00" fill="#000000">url: STRING</text>
<polygon fill="none" stroke="#000000" points="133.3837,-667.9605 133.3837,-689.9605 260.3837,-689.9605 260.3837,-667.9605 133.3837,-667.9605"/>
<text text-anchor="start" x="138.3837" y="-675.9605" font-family="Times,serif" font-size="10.00" fill="#000000">topic: STRING</text>
<polygon fill="none" stroke="#000000" points="133.3837,-645.9605 133.3837,-667.9605 260.3837,-667.9605 260.3837,-645.9605 133.3837,-645.9605"/>
<text text-anchor="start" x="138.3837" y="-653.9605" font-family="Times,serif" font-size="10.00" fill="#000000">description: TEXT</text>
<polygon fill="none" stroke="#000000" points="133.3837,-623.9605 133.3837,-645.9605 260.3837,-645.9605 260.3837,-623.9605 133.3837,-623.9605"/>
<text text-anchor="start" x="138.3837" y="-631.9605" font-family="Times,serif" font-size="10.00" fill="#000000">type: STRING</text>
<polygon fill="none" stroke="#000000" points="133.3837,-601.9605 133.3837,-623.9605 260.3837,-623.9605 260.3837,-601.9605 133.3837,-601.9605"/>
<text text-anchor="start" x="138.1517" y="-609.9605" font-family="Times,serif" font-size="10.00" fill="#000000">sequenceNumber: NUMBER</text>
<polygon fill="none" stroke="#000000" points="133.3837,-579.9605 133.3837,-601.9605 260.3837,-601.9605 260.3837,-579.9605 133.3837,-579.9605"/>
<text text-anchor="start" x="138.3837" y="-587.9605" font-family="Times,serif" font-size="10.00" fill="#000000">createdAt: DATE</text>
<polygon fill="none" stroke="#000000" points="133.3837,-557.9605 133.3837,-579.9605 260.3837,-579.9605 260.3837,-557.9605 133.3837,-557.9605"/>
<text text-anchor="start" x="138.3837" y="-565.9605" font-family="Times,serif" font-size="10.00" fill="#000000">updatedAt: DATE</text>
<polygon fill="none" stroke="#000000" points="133.3837,-535.9605 133.3837,-557.9605 260.3837,-557.9605 260.3837,-535.9605 133.3837,-535.9605"/>
<text text-anchor="start" x="138.3837" y="-543.9605" font-family="Times,serif" font-size="10.00" fill="#000000">LearningPathId: UUID</text>
</g>
<!-- LearningPathResource&#45;&gt;LearningPath -->
<g id="edge8" class="edge">
<title>LearningPathResource&#45;&gt;LearningPath</title>
<path fill="none" stroke="#000000" stroke-width=".75" d="M245.3989,-535.45C245.4303,-535.3722 245.4617,-535.2944 245.4931,-535.2166"/>
<polygon fill="#000000" stroke="#000000" stroke-width=".75" points="247.5508,-530.119 242.8007,-534.6728 246.4277,-532.9012 245.3047,-535.6835 245.3047,-535.6835 245.3047,-535.6835 246.4277,-532.9012 247.8088,-536.6942 247.5508,-530.119 247.5508,-530.119"/>
</g>
<!-- Tags -->
<g id="node7" class="node">
<title>Tags</title>
<polygon fill="#add8e6" stroke="transparent" points="0,-489.3994 0,-511.3994 102,-511.3994 102,-489.3994 0,-489.3994"/>
<polygon fill="none" stroke="#000000" points="0,-489.3994 0,-511.3994 102,-511.3994 102,-489.3994 0,-489.3994"/>
<text text-anchor="start" x="41.2815" y="-497.3994" font-family="Times,serif" font-size="10.00" fill="#000000">Tags</text>
<polygon fill="none" stroke="#000000" points="0,-467.3994 0,-489.3994 102,-489.3994 102,-467.3994 0,-467.3994"/>
<text text-anchor="start" x="5" y="-475.3994" font-family="Times,serif" font-size="10.00" fill="#000000">id: UUID</text>
<polygon fill="none" stroke="#000000" points="0,-445.3994 0,-467.3994 102,-467.3994 102,-445.3994 0,-445.3994"/>
<text text-anchor="start" x="5" y="-453.3994" font-family="Times,serif" font-size="10.00" fill="#000000">name: STRING</text>
<polygon fill="none" stroke="#000000" points="0,-423.3994 0,-445.3994 102,-445.3994 102,-423.3994 0,-423.3994"/>
<text text-anchor="start" x="5" y="-431.3994" font-family="Times,serif" font-size="10.00" fill="#000000">learningPathId: UUID</text>
<polygon fill="none" stroke="#000000" points="0,-401.3994 0,-423.3994 102,-423.3994 102,-401.3994 0,-401.3994"/>
<text text-anchor="start" x="5" y="-409.3994" font-family="Times,serif" font-size="10.00" fill="#000000">createdAt: DATE</text>
<polygon fill="none" stroke="#000000" points="0,-379.3994 0,-401.3994 102,-401.3994 102,-379.3994 0,-379.3994"/>
<text text-anchor="start" x="5" y="-387.3994" font-family="Times,serif" font-size="10.00" fill="#000000">updatedAt: DATE</text>
<polygon fill="none" stroke="#000000" points="0,-357.3994 0,-379.3994 102,-379.3994 102,-357.3994 0,-357.3994"/>
<text text-anchor="start" x="4.767" y="-365.3994" font-family="Times,serif" font-size="10.00" fill="#000000">LearningPathId: UUID</text>
</g>
<!-- Tags&#45;&gt;LearningPath -->
<g id="edge9" class="edge">
<title>Tags&#45;&gt;LearningPath</title>
<path fill="none" stroke="#000000" stroke-width=".75" d="M108.225,-441.3198C143.7574,-445.6169 189.0549,-451.0948 223.5061,-455.2611"/>
<polygon fill="#000000" stroke="#000000" stroke-width=".75" points="108.1168,-441.3068 102.4844,-437.9059 105.1385,-440.9466 102.1602,-440.5864 102.1602,-440.5864 102.1602,-440.5864 105.1385,-440.9466 101.836,-443.2669 108.1168,-441.3068 108.1168,-441.3068"/>
</g>
<!-- Upvotes -->
<g id="node8" class="node">
<title>Upvotes</title>
<polygon fill="#add8e6" stroke="transparent" points="505.5896,-132 505.5896,-154 604.5896,-154 604.5896,-132 505.5896,-132"/>
<polygon fill="none" stroke="#000000" points="505.5896,-132 505.5896,-154 604.5896,-154 604.5896,-132 505.5896,-132"/>
<text text-anchor="start" x="538.4266" y="-140" font-family="Times,serif" font-size="10.00" fill="#000000">Upvotes</text>
<polygon fill="none" stroke="#000000" points="505.5896,-110 505.5896,-132 604.5896,-132 604.5896,-110 505.5896,-110"/>
<text text-anchor="start" x="510.5896" y="-118" font-family="Times,serif" font-size="10.00" fill="#000000">id: UUID</text>
<polygon fill="none" stroke="#000000" points="505.5896,-88 505.5896,-110 604.5896,-110 604.5896,-88 505.5896,-88"/>
<text text-anchor="start" x="510.5896" y="-96" font-family="Times,serif" font-size="10.00" fill="#000000">userId: UUID</text>
<polygon fill="none" stroke="#000000" points="505.5896,-66 505.5896,-88 604.5896,-88 604.5896,-66 505.5896,-66"/>
<text text-anchor="start" x="510.5216" y="-74" font-family="Times,serif" font-size="10.00" fill="#000000">learningPathId: UUID</text>
<polygon fill="none" stroke="#000000" points="505.5896,-44 505.5896,-66 604.5896,-66 604.5896,-44 505.5896,-44"/>
<text text-anchor="start" x="510.5896" y="-52" font-family="Times,serif" font-size="10.00" fill="#000000">createdAt: DATE</text>
<polygon fill="none" stroke="#000000" points="505.5896,-22 505.5896,-44 604.5896,-44 604.5896,-22 505.5896,-22"/>
<text text-anchor="start" x="510.5896" y="-30" font-family="Times,serif" font-size="10.00" fill="#000000">updatedAt: DATE</text>
<polygon fill="none" stroke="#000000" points="505.5896,0 505.5896,-22 604.5896,-22 604.5896,0 505.5896,0"/>
<text text-anchor="start" x="510.5896" y="-8" font-family="Times,serif" font-size="10.00" fill="#000000">UserId: UUID</text>
</g>
<!-- Upvotes&#45;&gt;LearningPath -->
<g id="edge10" class="edge">
<title>Upvotes&#45;&gt;LearningPath</title>
<path fill="none" stroke="#000000" stroke-width=".75" d="M501.3946,-150.2166C451.1878,-219.3204 376.4004,-322.2564 326.7479,-390.5973"/>
<polygon fill="#000000" stroke="#000000" stroke-width=".75" points="501.4396,-150.1547 507.1507,-146.8876 503.203,-147.7276 504.9664,-145.3006 504.9664,-145.3006 504.9664,-145.3006 503.203,-147.7276 502.782,-143.7135 501.4396,-150.1547 501.4396,-150.1547"/>
</g>
<!-- Upvotes&#45;&gt;User -->
<g id="edge11" class="edge">
<title>Upvotes&#45;&gt;User</title>
<path fill="none" stroke="#000000" stroke-width=".75" d="M607.8273,-150.2753C628.3396,-178.5081 651.7889,-210.7833 672.4463,-239.2157"/>
<polygon fill="#000000" stroke="#000000" stroke-width=".75" points="607.8247,-150.2717 606.4823,-143.8305 606.0613,-147.8446 604.2979,-145.4175 604.2979,-145.4175 604.2979,-145.4175 606.0613,-147.8446 602.1135,-147.0046 607.8247,-150.2717 607.8247,-150.2717"/>
</g>
<!-- UserSession -->
<g id="node10" class="node">
<title>UserSession</title>
<polygon fill="#add8e6" stroke="transparent" points="760.3746,-619.6436 760.3746,-641.6436 840.3746,-641.6436 840.3746,-619.6436 760.3746,-619.6436"/>
<polygon fill="none" stroke="#000000" points="760.3746,-619.6436 760.3746,-641.6436 840.3746,-641.6436 840.3746,-619.6436 760.3746,-619.6436"/>
<text text-anchor="start" x="775.6591" y="-627.6436" font-family="Times,serif" font-size="10.00" fill="#000000">UserSession</text>
<polygon fill="none" stroke="#000000" points="760.3746,-597.6436 760.3746,-619.6436 840.3746,-619.6436 840.3746,-597.6436 760.3746,-597.6436"/>
<text text-anchor="start" x="765.3746" y="-605.6436" font-family="Times,serif" font-size="10.00" fill="#000000">id: UUID</text>
<polygon fill="none" stroke="#000000" points="760.3746,-575.6436 760.3746,-597.6436 840.3746,-597.6436 840.3746,-575.6436 760.3746,-575.6436"/>
<text text-anchor="start" x="765.3746" y="-583.6436" font-family="Times,serif" font-size="10.00" fill="#000000">userId: UUID</text>
<polygon fill="none" stroke="#000000" points="760.3746,-553.6436 760.3746,-575.6436 840.3746,-575.6436 840.3746,-553.6436 760.3746,-553.6436"/>
<text text-anchor="start" x="764.9706" y="-561.6436" font-family="Times,serif" font-size="10.00" fill="#000000">expiresAt: DATE</text>
<polygon fill="none" stroke="#000000" points="760.3746,-531.6436 760.3746,-553.6436 840.3746,-553.6436 840.3746,-531.6436 760.3746,-531.6436"/>
<text text-anchor="start" x="764.9761" y="-539.6436" font-family="Times,serif" font-size="10.00" fill="#000000">createdAt: DATE</text>
</g>
</g>
</svg>
