<?xml version="1.0" encoding="UTF-8" standalone="no"?>
<!DOCTYPE svg PUBLIC "-//W3C//DTD SVG 1.1//EN"
 "http://www.w3.org/Graphics/SVG/1.1/DTD/svg11.dtd">
<!-- Generated by graphviz version 2.40.1 (20161225.0304)
 -->
<!-- Title: models_diagram Pages: 1 -->
<svg width="1273pt" height="795pt"
 viewBox="0.00 0.00 1272.84 794.90" xmlns="http://www.w3.org/2000/svg" xmlns:xlink="http://www.w3.org/1999/xlink">
<g id="graph0" class="graph" transform="scale(1 1) rotate(0) translate(36 758.8985)">
<title>models_diagram</title>
<polygon fill="#ffffff" stroke="transparent" points="-36,36 -36,-758.8985 1236.8358,-758.8985 1236.8358,36 -36,36"/>
<!-- Downvotes -->
<g id="node1" class="node">
<title>Downvotes</title>
<polygon fill="#add8e6" stroke="transparent" points="170.6403,-229.1316 170.6403,-251.1316 269.6403,-251.1316 269.6403,-229.1316 170.6403,-229.1316"/>
<polygon fill="none" stroke="#000000" points="170.6403,-229.1316 170.6403,-251.1316 269.6403,-251.1316 269.6403,-229.1316 170.6403,-229.1316"/>
<text text-anchor="start" x="197.3678" y="-237.1316" font-family="Times,serif" font-size="10.00" fill="#000000">Downvotes</text>
<polygon fill="none" stroke="#000000" points="170.6403,-207.1316 170.6403,-229.1316 269.6403,-229.1316 269.6403,-207.1316 170.6403,-207.1316"/>
<text text-anchor="start" x="175.6403" y="-215.1316" font-family="Times,serif" font-size="10.00" fill="#000000">id: UUID</text>
<polygon fill="none" stroke="#000000" points="170.6403,-185.1316 170.6403,-207.1316 269.6403,-207.1316 269.6403,-185.1316 170.6403,-185.1316"/>
<text text-anchor="start" x="175.6403" y="-193.1316" font-family="Times,serif" font-size="10.00" fill="#000000">userId: UUID</text>
<polygon fill="none" stroke="#000000" points="170.6403,-163.1316 170.6403,-185.1316 269.6403,-185.1316 269.6403,-163.1316 170.6403,-163.1316"/>
<text text-anchor="start" x="175.5723" y="-171.1316" font-family="Times,serif" font-size="10.00" fill="#000000">learningPathId: UUID</text>
<polygon fill="none" stroke="#000000" points="170.6403,-141.1316 170.6403,-163.1316 269.6403,-163.1316 269.6403,-141.1316 170.6403,-141.1316"/>
<text text-anchor="start" x="175.6403" y="-149.1316" font-family="Times,serif" font-size="10.00" fill="#000000">createdAt: DATE</text>
<polygon fill="none" stroke="#000000" points="170.6403,-119.1316 170.6403,-141.1316 269.6403,-141.1316 269.6403,-119.1316 170.6403,-119.1316"/>
<text text-anchor="start" x="175.6403" y="-127.1316" font-family="Times,serif" font-size="10.00" fill="#000000">updatedAt: DATE</text>
<polygon fill="none" stroke="#000000" points="170.6403,-97.1316 170.6403,-119.1316 269.6403,-119.1316 269.6403,-97.1316 170.6403,-97.1316"/>
<text text-anchor="start" x="175.6403" y="-105.1316" font-family="Times,serif" font-size="10.00" fill="#000000">UserId: UUID</text>
</g>
<!-- LearningPath -->
<g id="node5" class="node">
<title>LearningPath</title>
<polygon fill="#add8e6" stroke="transparent" points="168.6403,-598.456 168.6403,-620.456 271.6403,-620.456 271.6403,-598.456 168.6403,-598.456"/>
<polygon fill="none" stroke="#000000" points="168.6403,-598.456 168.6403,-620.456 271.6403,-620.456 271.6403,-598.456 168.6403,-598.456"/>
<text text-anchor="start" x="193.2043" y="-606.456" font-family="Times,serif" font-size="10.00" fill="#000000">LearningPath</text>
<polygon fill="none" stroke="#000000" points="168.6403,-576.456 168.6403,-598.456 271.6403,-598.456 271.6403,-576.456 168.6403,-576.456"/>
<text text-anchor="start" x="173.6403" y="-584.456" font-family="Times,serif" font-size="10.00" fill="#000000">id: UUID</text>
<polygon fill="none" stroke="#000000" points="168.6403,-554.456 168.6403,-576.456 271.6403,-576.456 271.6403,-554.456 168.6403,-554.456"/>
<text text-anchor="start" x="173.6403" y="-562.456" font-family="Times,serif" font-size="10.00" fill="#000000">name: STRING</text>
<polygon fill="none" stroke="#000000" points="168.6403,-532.456 168.6403,-554.456 271.6403,-554.456 271.6403,-532.456 168.6403,-532.456"/>
<text text-anchor="start" x="173.6403" y="-540.456" font-family="Times,serif" font-size="10.00" fill="#000000">description: TEXT</text>
<polygon fill="none" stroke="#000000" points="168.6403,-510.456 168.6403,-532.456 271.6403,-532.456 271.6403,-510.456 168.6403,-510.456"/>
<text text-anchor="start" x="173.6403" y="-518.456" font-family="Times,serif" font-size="10.00" fill="#000000">tags: STRING</text>
<polygon fill="none" stroke="#000000" points="168.6403,-488.456 168.6403,-510.456 271.6403,-510.456 271.6403,-488.456 168.6403,-488.456"/>
<text text-anchor="start" x="173.6403" y="-496.456" font-family="Times,serif" font-size="10.00" fill="#000000">difficulty: STRING</text>
<polygon fill="none" stroke="#000000" points="168.6403,-466.456 168.6403,-488.456 271.6403,-488.456 271.6403,-466.456 168.6403,-466.456"/>
<text text-anchor="start" x="173.6403" y="-474.456" font-family="Times,serif" font-size="10.00" fill="#000000">upVotes: NUMBER</text>
<polygon fill="none" stroke="#000000" points="168.6403,-444.456 168.6403,-466.456 271.6403,-466.456 271.6403,-444.456 168.6403,-444.456"/>
<text text-anchor="start" x="173.3413" y="-452.456" font-family="Times,serif" font-size="10.00" fill="#000000">downVotes: NUMBER</text>
<polygon fill="none" stroke="#000000" points="168.6403,-422.456 168.6403,-444.456 271.6403,-444.456 271.6403,-422.456 168.6403,-422.456"/>
<text text-anchor="start" x="173.6403" y="-430.456" font-family="Times,serif" font-size="10.00" fill="#000000">userId: UUID</text>
<polygon fill="none" stroke="#000000" points="168.6403,-400.456 168.6403,-422.456 271.6403,-422.456 271.6403,-400.456 168.6403,-400.456"/>
<text text-anchor="start" x="173.6403" y="-408.456" font-family="Times,serif" font-size="10.00" fill="#000000">createdAt: DATE</text>
<polygon fill="none" stroke="#000000" points="168.6403,-378.456 168.6403,-400.456 271.6403,-400.456 271.6403,-378.456 168.6403,-378.456"/>
<text text-anchor="start" x="173.6403" y="-386.456" font-family="Times,serif" font-size="10.00" fill="#000000">updatedAt: DATE</text>
<polygon fill="none" stroke="#000000" points="168.6403,-356.456 168.6403,-378.456 271.6403,-378.456 271.6403,-356.456 168.6403,-356.456"/>
<text text-anchor="start" x="173.6403" y="-364.456" font-family="Times,serif" font-size="10.00" fill="#000000">UserId: UUID</text>
</g>
<!-- Downvotes&#45;&gt;LearningPath -->
<g id="edge1" class="edge">
<title>Downvotes&#45;&gt;LearningPath</title>
<path fill="none" stroke="#000000" stroke-width=".75" d="M219.6403,-257.8031C219.6403,-288.0288 219.6403,-322.9349 219.6403,-356.2981"/>
<polygon fill="#000000" stroke="#000000" stroke-width=".75" points="219.6404,-257.4266 222.3403,-251.4265 219.6403,-254.4266 219.6403,-251.4266 219.6403,-251.4266 219.6403,-251.4266 219.6403,-254.4266 216.9403,-251.4266 219.6404,-257.4266 219.6404,-257.4266"/>
</g>
<!-- User -->
<g id="node8" class="node">
<title>User</title>
<polygon fill="#add8e6" stroke="transparent" points="649.3358,-430.2938 649.3358,-452.2938 758.3358,-452.2938 758.3358,-430.2938 649.3358,-430.2938"/>
<polygon fill="none" stroke="#000000" points="649.3358,-430.2938 649.3358,-452.2938 758.3358,-452.2938 758.3358,-430.2938 649.3358,-430.2938"/>
<text text-anchor="start" x="694.3978" y="-438.2938" font-family="Times,serif" font-size="10.00" fill="#000000">User</text>
<polygon fill="none" stroke="#000000" points="649.3358,-408.2938 649.3358,-430.2938 758.3358,-430.2938 758.3358,-408.2938 649.3358,-408.2938"/>
<text text-anchor="start" x="654.3358" y="-416.2938" font-family="Times,serif" font-size="10.00" fill="#000000">id: UUID</text>
<polygon fill="none" stroke="#000000" points="649.3358,-386.2938 649.3358,-408.2938 758.3358,-408.2938 758.3358,-386.2938 649.3358,-386.2938"/>
<text text-anchor="start" x="654.3358" y="-394.2938" font-family="Times,serif" font-size="10.00" fill="#000000">email: STRING</text>
<polygon fill="none" stroke="#000000" points="649.3358,-364.2938 649.3358,-386.2938 758.3358,-386.2938 758.3358,-364.2938 649.3358,-364.2938"/>
<text text-anchor="start" x="654.3358" y="-372.2938" font-family="Times,serif" font-size="10.00" fill="#000000">firstName: STRING</text>
<polygon fill="none" stroke="#000000" points="649.3358,-342.2938 649.3358,-364.2938 758.3358,-364.2938 758.3358,-342.2938 649.3358,-342.2938"/>
<text text-anchor="start" x="654.3358" y="-350.2938" font-family="Times,serif" font-size="10.00" fill="#000000">lastName: STRING</text>
<polygon fill="none" stroke="#000000" points="649.3358,-320.2938 649.3358,-342.2938 758.3358,-342.2938 758.3358,-320.2938 649.3358,-320.2938"/>
<text text-anchor="start" x="654.3358" y="-328.2938" font-family="Times,serif" font-size="10.00" fill="#000000">profilePicture: STRING</text>
<polygon fill="none" stroke="#000000" points="649.3358,-298.2938 649.3358,-320.2938 758.3358,-320.2938 758.3358,-298.2938 649.3358,-298.2938"/>
<text text-anchor="start" x="654.3358" y="-306.2938" font-family="Times,serif" font-size="10.00" fill="#000000">googleId: STRING</text>
<polygon fill="none" stroke="#000000" points="649.3358,-276.2938 649.3358,-298.2938 758.3358,-298.2938 758.3358,-276.2938 649.3358,-276.2938"/>
<text text-anchor="start" x="654.3358" y="-284.2938" font-family="Times,serif" font-size="10.00" fill="#000000">facebookId: STRING</text>
<polygon fill="none" stroke="#000000" points="649.3358,-254.2938 649.3358,-276.2938 758.3358,-276.2938 758.3358,-254.2938 649.3358,-254.2938"/>
<text text-anchor="start" x="653.9883" y="-262.2938" font-family="Times,serif" font-size="10.00" fill="#000000">passwordHash: STRING</text>
<polygon fill="none" stroke="#000000" points="649.3358,-232.2938 649.3358,-254.2938 758.3358,-254.2938 758.3358,-232.2938 649.3358,-232.2938"/>
<text text-anchor="start" x="654.3358" y="-240.2938" font-family="Times,serif" font-size="10.00" fill="#000000">createdAt: DATE</text>
<polygon fill="none" stroke="#000000" points="649.3358,-210.2938 649.3358,-232.2938 758.3358,-232.2938 758.3358,-210.2938 649.3358,-210.2938"/>
<text text-anchor="start" x="654.3358" y="-218.2938" font-family="Times,serif" font-size="10.00" fill="#000000">updatedAt: DATE</text>
</g>
<!-- Downvotes&#45;&gt;User -->
<g id="edge2" class="edge">
<title>Downvotes&#45;&gt;User</title>
<path fill="none" stroke="#000000" stroke-width=".75" d="M275.3223,-192.2238C368.6939,-222.562 555.7047,-283.3255 648.5042,-313.4779"/>
<polygon fill="#000000" stroke="#000000" stroke-width=".75" points="275.2887,-192.2129 270.4168,-187.7909 272.4355,-191.2858 269.5824,-190.3588 269.5824,-190.3588 269.5824,-190.3588 272.4355,-191.2858 268.748,-192.9266 275.2887,-192.2129 275.2887,-192.2129"/>
</g>
<!-- Favorites -->
<g id="node2" class="node">
<title>Favorites</title>
<polygon fill="#add8e6" stroke="transparent" points="467.5805,-651.5876 467.5805,-673.5876 569.5805,-673.5876 569.5805,-651.5876 467.5805,-651.5876"/>
<polygon fill="none" stroke="#000000" points="467.5805,-651.5876 467.5805,-673.5876 569.5805,-673.5876 569.5805,-651.5876 467.5805,-651.5876"/>
<text text-anchor="start" x="499.974" y="-659.5876" font-family="Times,serif" font-size="10.00" fill="#000000">Favorites</text>
<polygon fill="none" stroke="#000000" points="467.5805,-629.5876 467.5805,-651.5876 569.5805,-651.5876 569.5805,-629.5876 467.5805,-629.5876"/>
<text text-anchor="start" x="472.5805" y="-637.5876" font-family="Times,serif" font-size="10.00" fill="#000000">id: UUID</text>
<polygon fill="none" stroke="#000000" points="467.5805,-607.5876 467.5805,-629.5876 569.5805,-629.5876 569.5805,-607.5876 467.5805,-607.5876"/>
<text text-anchor="start" x="472.5805" y="-615.5876" font-family="Times,serif" font-size="10.00" fill="#000000">userId: UUID</text>
<polygon fill="none" stroke="#000000" points="467.5805,-585.5876 467.5805,-607.5876 569.5805,-607.5876 569.5805,-585.5876 467.5805,-585.5876"/>
<text text-anchor="start" x="472.5805" y="-593.5876" font-family="Times,serif" font-size="10.00" fill="#000000">learningPathId: UUID</text>
<polygon fill="none" stroke="#000000" points="467.5805,-563.5876 467.5805,-585.5876 569.5805,-585.5876 569.5805,-563.5876 467.5805,-563.5876"/>
<text text-anchor="start" x="472.5805" y="-571.5876" font-family="Times,serif" font-size="10.00" fill="#000000">createdAt: DATE</text>
<polygon fill="none" stroke="#000000" points="467.5805,-541.5876 467.5805,-563.5876 569.5805,-563.5876 569.5805,-541.5876 467.5805,-541.5876"/>
<text text-anchor="start" x="472.5805" y="-549.5876" font-family="Times,serif" font-size="10.00" fill="#000000">updatedAt: DATE</text>
<polygon fill="none" stroke="#000000" points="467.5805,-519.5876 467.5805,-541.5876 569.5805,-541.5876 569.5805,-519.5876 467.5805,-519.5876"/>
<text text-anchor="start" x="472.3475" y="-527.5876" font-family="Times,serif" font-size="10.00" fill="#000000">LearningPathId: UUID</text>
<polygon fill="none" stroke="#000000" points="467.5805,-497.5876 467.5805,-519.5876 569.5805,-519.5876 569.5805,-497.5876 467.5805,-497.5876"/>
<text text-anchor="start" x="472.5805" y="-505.5876" font-family="Times,serif" font-size="10.00" fill="#000000">UserId: UUID</text>
</g>
<!-- Favorites&#45;&gt;LearningPath -->
<g id="edge3" class="edge">
<title>Favorites&#45;&gt;LearningPath</title>
<path fill="none" stroke="#000000" stroke-width=".75" d="M461.6379,-567.0858C406.7048,-549.2369 324.2862,-522.4575 271.231,-505.2188"/>
<polygon fill="#000000" stroke="#000000" stroke-width=".75" points="461.8242,-567.1462 466.6962,-571.5683 464.6774,-568.0733 467.5306,-569.0004 467.5306,-569.0004 467.5306,-569.0004 464.6774,-568.0733 468.3649,-566.4326 461.8242,-567.1462 461.8242,-567.1462"/>
</g>
<!-- Favorites&#45;&gt;User -->
<g id="edge4" class="edge">
<title>Favorites&#45;&gt;User</title>
<path fill="none" stroke="#000000" stroke-width=".75" d="M573.5782,-509.8897C597.3406,-477.1836 625.0723,-439.0142 648.7846,-406.3771"/>
<polygon fill="#000000" stroke="#000000" stroke-width=".75" points="573.3266,-510.2361 567.6155,-513.5032 571.5632,-512.6632 569.7998,-515.0903 569.7998,-515.0903 569.7998,-515.0903 571.5632,-512.6632 571.9842,-516.6773 573.3266,-510.2361 573.3266,-510.2361"/>
</g>
<!-- LearningBucket -->
<g id="node3" class="node">
<title>LearningBucket</title>
<polygon fill="#add8e6" stroke="transparent" points="832.3358,-408.2938 832.3358,-430.2938 917.3358,-430.2938 917.3358,-408.2938 832.3358,-408.2938"/>
<polygon fill="none" stroke="#000000" points="832.3358,-408.2938 832.3358,-430.2938 917.3358,-430.2938 917.3358,-408.2938 832.3358,-408.2938"/>
<text text-anchor="start" x="842.6253" y="-416.2938" font-family="Times,serif" font-size="10.00" fill="#000000">LearningBucket</text>
<polygon fill="none" stroke="#000000" points="832.3358,-386.2938 832.3358,-408.2938 917.3358,-408.2938 917.3358,-386.2938 832.3358,-386.2938"/>
<text text-anchor="start" x="837.3358" y="-394.2938" font-family="Times,serif" font-size="10.00" fill="#000000">id: UUID</text>
<polygon fill="none" stroke="#000000" points="832.3358,-364.2938 832.3358,-386.2938 917.3358,-386.2938 917.3358,-364.2938 832.3358,-364.2938"/>
<text text-anchor="start" x="837.3358" y="-372.2938" font-family="Times,serif" font-size="10.00" fill="#000000">name: STRING</text>
<polygon fill="none" stroke="#000000" points="832.3358,-342.2938 832.3358,-364.2938 917.3358,-364.2938 917.3358,-342.2938 832.3358,-342.2938"/>
<text text-anchor="start" x="837.2068" y="-350.2938" font-family="Times,serif" font-size="10.00" fill="#000000">description: TEXT</text>
<polygon fill="none" stroke="#000000" points="832.3358,-320.2938 832.3358,-342.2938 917.3358,-342.2938 917.3358,-320.2938 832.3358,-320.2938"/>
<text text-anchor="start" x="837.3358" y="-328.2938" font-family="Times,serif" font-size="10.00" fill="#000000">tags: STRING</text>
<polygon fill="none" stroke="#000000" points="832.3358,-298.2938 832.3358,-320.2938 917.3358,-320.2938 917.3358,-298.2938 832.3358,-298.2938"/>
<text text-anchor="start" x="837.3358" y="-306.2938" font-family="Times,serif" font-size="10.00" fill="#000000">userId: UUID</text>
<polygon fill="none" stroke="#000000" points="832.3358,-276.2938 832.3358,-298.2938 917.3358,-298.2938 917.3358,-276.2938 832.3358,-276.2938"/>
<text text-anchor="start" x="837.3358" y="-284.2938" font-family="Times,serif" font-size="10.00" fill="#000000">createdAt: DATE</text>
<polygon fill="none" stroke="#000000" points="832.3358,-254.2938 832.3358,-276.2938 917.3358,-276.2938 917.3358,-254.2938 832.3358,-254.2938"/>
<text text-anchor="start" x="837.3358" y="-262.2938" font-family="Times,serif" font-size="10.00" fill="#000000">updatedAt: DATE</text>
<polygon fill="none" stroke="#000000" points="832.3358,-232.2938 832.3358,-254.2938 917.3358,-254.2938 917.3358,-232.2938 832.3358,-232.2938"/>
<text text-anchor="start" x="837.3358" y="-240.2938" font-family="Times,serif" font-size="10.00" fill="#000000">UserId: UUID</text>
</g>
<!-- LearningBucket&#45;&gt;User -->
<g id="edge5" class="edge">
<title>LearningBucket&#45;&gt;User</title>
<path fill="none" stroke="#000000" stroke-width=".75" d="M825.5074,-331.2938C804.462,-331.2938 779.7593,-331.2938 758.0944,-331.2938"/>
<polygon fill="#000000" stroke="#000000" stroke-width=".75" points="825.6264,-331.2939 831.6264,-333.9938 828.6264,-331.2938 831.6264,-331.2938 831.6264,-331.2938 831.6264,-331.2938 828.6264,-331.2938 831.6263,-328.5938 825.6264,-331.2939 825.6264,-331.2939"/>
</g>
<!-- LearningBucketResource -->
<g id="node4" class="node">
<title>LearningBucketResource</title>
<polygon fill="#add8e6" stroke="transparent" points="1088.3358,-408.2938 1088.3358,-430.2938 1201.3358,-430.2938 1201.3358,-408.2938 1088.3358,-408.2938"/>
<polygon fill="none" stroke="#000000" points="1088.3358,-408.2938 1088.3358,-430.2938 1201.3358,-430.2938 1201.3358,-408.2938 1088.3358,-408.2938"/>
<text text-anchor="start" x="1094.0233" y="-416.2938" font-family="Times,serif" font-size="10.00" fill="#000000">LearningBucketResource</text>
<polygon fill="none" stroke="#000000" points="1088.3358,-386.2938 1088.3358,-408.2938 1201.3358,-408.2938 1201.3358,-386.2938 1088.3358,-386.2938"/>
<text text-anchor="start" x="1093.3358" y="-394.2938" font-family="Times,serif" font-size="10.00" fill="#000000">id: UUID</text>
<polygon fill="none" stroke="#000000" points="1088.3358,-364.2938 1088.3358,-386.2938 1201.3358,-386.2938 1201.3358,-364.2938 1088.3358,-364.2938"/>
<text text-anchor="start" x="1093.3358" y="-372.2938" font-family="Times,serif" font-size="10.00" fill="#000000">learningBucketId: UUID</text>
<polygon fill="none" stroke="#000000" points="1088.3358,-342.2938 1088.3358,-364.2938 1201.3358,-364.2938 1201.3358,-342.2938 1088.3358,-342.2938"/>
<text text-anchor="start" x="1093.3358" y="-350.2938" font-family="Times,serif" font-size="10.00" fill="#000000">url: STRING</text>
<polygon fill="none" stroke="#000000" points="1088.3358,-320.2938 1088.3358,-342.2938 1201.3358,-342.2938 1201.3358,-320.2938 1088.3358,-320.2938"/>
<text text-anchor="start" x="1093.3358" y="-328.2938" font-family="Times,serif" font-size="10.00" fill="#000000">topic: STRING</text>
<polygon fill="none" stroke="#000000" points="1088.3358,-298.2938 1088.3358,-320.2938 1201.3358,-320.2938 1201.3358,-298.2938 1088.3358,-298.2938"/>
<text text-anchor="start" x="1093.3358" y="-306.2938" font-family="Times,serif" font-size="10.00" fill="#000000">description: TEXT</text>
<polygon fill="none" stroke="#000000" points="1088.3358,-276.2938 1088.3358,-298.2938 1201.3358,-298.2938 1201.3358,-276.2938 1088.3358,-276.2938"/>
<text text-anchor="start" x="1093.3358" y="-284.2938" font-family="Times,serif" font-size="10.00" fill="#000000">createdAt: DATE</text>
<polygon fill="none" stroke="#000000" points="1088.3358,-254.2938 1088.3358,-276.2938 1201.3358,-276.2938 1201.3358,-254.2938 1088.3358,-254.2938"/>
<text text-anchor="start" x="1093.3358" y="-262.2938" font-family="Times,serif" font-size="10.00" fill="#000000">updatedAt: DATE</text>
<polygon fill="none" stroke="#000000" points="1088.3358,-232.2938 1088.3358,-254.2938 1201.3358,-254.2938 1201.3358,-232.2938 1088.3358,-232.2938"/>
<text text-anchor="start" x="1093.3283" y="-240.2938" font-family="Times,serif" font-size="10.00" fill="#000000">LearningBucketId: UUID</text>
</g>
<!-- LearningBucketResource&#45;&gt;LearningBucket -->
<g id="edge6" class="edge">
<title>LearningBucketResource&#45;&gt;LearningBucket</title>
<path fill="none" stroke="#000000" stroke-width=".75" d="M1081.672,-331.2938C1031.1517,-331.2938 961.4521,-331.2938 917.1356,-331.2938"/>
<polygon fill="#000000" stroke="#000000" stroke-width=".75" points="1081.7349,-331.2937 1087.7349,-333.9938 1084.7349,-331.2937 1087.7349,-331.2938 1087.7349,-331.2938 1087.7349,-331.2938 1084.7349,-331.2937 1087.735,-328.5938 1081.7349,-331.2937 1081.7349,-331.2937"/>
</g>
<!-- LearningPath&#45;&gt;User -->
<g id="edge7" class="edge">
<title>LearningPath&#45;&gt;User</title>
<path fill="none" stroke="#000000" stroke-width=".75" d="M277.1878,-469.7577C371.2042,-439.2099 556.4758,-379.0115 648.6215,-349.0715"/>
<polygon fill="#000000" stroke="#000000" stroke-width=".75" points="277.1105,-469.7827 270.5698,-469.069 274.2573,-470.7098 271.4042,-471.6369 271.4042,-471.6369 271.4042,-471.6369 274.2573,-470.7098 272.2385,-474.2047 277.1105,-469.7827 277.1105,-469.7827"/>
</g>
<!-- LearningPathResource -->
<g id="node6" class="node">
<title>LearningPathResource</title>
<polygon fill="#add8e6" stroke="transparent" points=".5,-700.8985 .5,-722.8985 127.5,-722.8985 127.5,-700.8985 .5,-700.8985"/>
<polygon fill="none" stroke="#000000" points=".5,-700.8985 .5,-722.8985 127.5,-722.8985 127.5,-700.8985 .5,-700.8985"/>
<text text-anchor="start" x="18.462" y="-708.8985" font-family="Times,serif" font-size="10.00" fill="#000000">LearningPathResource</text>
<polygon fill="none" stroke="#000000" points=".5,-678.8985 .5,-700.8985 127.5,-700.8985 127.5,-678.8985 .5,-678.8985"/>
<text text-anchor="start" x="5.5" y="-686.8985" font-family="Times,serif" font-size="10.00" fill="#000000">id: UUID</text>
<polygon fill="none" stroke="#000000" points=".5,-656.8985 .5,-678.8985 127.5,-678.8985 127.5,-656.8985 .5,-656.8985"/>
<text text-anchor="start" x="5.5" y="-664.8985" font-family="Times,serif" font-size="10.00" fill="#000000">learningPathId: UUID</text>
<polygon fill="none" stroke="#000000" points=".5,-634.8985 .5,-656.8985 127.5,-656.8985 127.5,-634.8985 .5,-634.8985"/>
<text text-anchor="start" x="5.5" y="-642.8985" font-family="Times,serif" font-size="10.00" fill="#000000">url: STRING</text>
<polygon fill="none" stroke="#000000" points=".5,-612.8985 .5,-634.8985 127.5,-634.8985 127.5,-612.8985 .5,-612.8985"/>
<text text-anchor="start" x="5.5" y="-620.8985" font-family="Times,serif" font-size="10.00" fill="#000000">topic: STRING</text>
<polygon fill="none" stroke="#000000" points=".5,-590.8985 .5,-612.8985 127.5,-612.8985 127.5,-590.8985 .5,-590.8985"/>
<text text-anchor="start" x="5.5" y="-598.8985" font-family="Times,serif" font-size="10.00" fill="#000000">description: TEXT</text>
<polygon fill="none" stroke="#000000" points=".5,-568.8985 .5,-590.8985 127.5,-590.8985 127.5,-568.8985 .5,-568.8985"/>
<text text-anchor="start" x="5.5" y="-576.8985" font-family="Times,serif" font-size="10.00" fill="#000000">type: STRING</text>
<polygon fill="none" stroke="#000000" points=".5,-546.8985 .5,-568.8985 127.5,-568.8985 127.5,-546.8985 .5,-546.8985"/>
<text text-anchor="start" x="5.268" y="-554.8985" font-family="Times,serif" font-size="10.00" fill="#000000">sequenceNumber: NUMBER</text>
<polygon fill="none" stroke="#000000" points=".5,-524.8985 .5,-546.8985 127.5,-546.8985 127.5,-524.8985 .5,-524.8985"/>
<text text-anchor="start" x="5.5" y="-532.8985" font-family="Times,serif" font-size="10.00" fill="#000000">createdAt: DATE</text>
<polygon fill="none" stroke="#000000" points=".5,-502.8985 .5,-524.8985 127.5,-524.8985 127.5,-502.8985 .5,-502.8985"/>
<text text-anchor="start" x="5.5" y="-510.8985" font-family="Times,serif" font-size="10.00" fill="#000000">updatedAt: DATE</text>
<polygon fill="none" stroke="#000000" points=".5,-480.8985 .5,-502.8985 127.5,-502.8985 127.5,-480.8985 .5,-480.8985"/>
<text text-anchor="start" x="5.5" y="-488.8985" font-family="Times,serif" font-size="10.00" fill="#000000">LearningPathId: UUID</text>
</g>
<!-- LearningPathResource&#45;&gt;LearningPath -->
<g id="edge8" class="edge">
<title>LearningPathResource&#45;&gt;LearningPath</title>
<path fill="none" stroke="#000000" stroke-width=".75" d="M132.1629,-552.012C144.2421,-543.236 156.6261,-534.2385 168.1355,-525.8764"/>
<polygon fill="#000000" stroke="#000000" stroke-width=".75" points="131.8623,-552.2304 125.4212,-553.5728 129.4353,-553.9937 127.0082,-555.7571 127.0082,-555.7571 127.0082,-555.7571 129.4353,-553.9937 128.5953,-557.9415 131.8623,-552.2304 131.8623,-552.2304"/>
</g>
<!-- Upvotes -->
<g id="node7" class="node">
<title>Upvotes</title>
<polygon fill="#add8e6" stroke="transparent" points="469.5805,-132 469.5805,-154 568.5805,-154 568.5805,-132 469.5805,-132"/>
<polygon fill="none" stroke="#000000" points="469.5805,-132 469.5805,-154 568.5805,-154 568.5805,-132 469.5805,-132"/>
<text text-anchor="start" x="502.4175" y="-140" font-family="Times,serif" font-size="10.00" fill="#000000">Upvotes</text>
<polygon fill="none" stroke="#000000" points="469.5805,-110 469.5805,-132 568.5805,-132 568.5805,-110 469.5805,-110"/>
<text text-anchor="start" x="474.5805" y="-118" font-family="Times,serif" font-size="10.00" fill="#000000">id: UUID</text>
<polygon fill="none" stroke="#000000" points="469.5805,-88 469.5805,-110 568.5805,-110 568.5805,-88 469.5805,-88"/>
<text text-anchor="start" x="474.5805" y="-96" font-family="Times,serif" font-size="10.00" fill="#000000">userId: UUID</text>
<polygon fill="none" stroke="#000000" points="469.5805,-66 469.5805,-88 568.5805,-88 568.5805,-66 469.5805,-66"/>
<text text-anchor="start" x="474.5125" y="-74" font-family="Times,serif" font-size="10.00" fill="#000000">learningPathId: UUID</text>
<polygon fill="none" stroke="#000000" points="469.5805,-44 469.5805,-66 568.5805,-66 568.5805,-44 469.5805,-44"/>
<text text-anchor="start" x="474.5805" y="-52" font-family="Times,serif" font-size="10.00" fill="#000000">createdAt: DATE</text>
<polygon fill="none" stroke="#000000" points="469.5805,-22 469.5805,-44 568.5805,-44 568.5805,-22 469.5805,-22"/>
<text text-anchor="start" x="474.5805" y="-30" font-family="Times,serif" font-size="10.00" fill="#000000">updatedAt: DATE</text>
<polygon fill="none" stroke="#000000" points="469.5805,0 469.5805,-22 568.5805,-22 568.5805,0 469.5805,0"/>
<text text-anchor="start" x="474.5805" y="-8" font-family="Times,serif" font-size="10.00" fill="#000000">UserId: UUID</text>
</g>
<!-- Upvotes&#45;&gt;LearningPath -->
<g id="edge9" class="edge">
<title>Upvotes&#45;&gt;LearningPath</title>
<path fill="none" stroke="#000000" stroke-width=".75" d="M465.3103,-150.3201C410.43,-225.8565 325.4648,-342.801 271.2144,-417.4703"/>
<polygon fill="#000000" stroke="#000000" stroke-width=".75" points="465.3543,-150.2596 471.0654,-146.9925 467.1177,-147.8325 468.8811,-145.4055 468.8811,-145.4055 468.8811,-145.4055 467.1177,-147.8325 466.6967,-143.8184 465.3543,-150.2596 465.3543,-150.2596"/>
</g>
<!-- Upvotes&#45;&gt;User -->
<g id="edge10" class="edge">
<title>Upvotes&#45;&gt;User</title>
<path fill="none" stroke="#000000" stroke-width=".75" d="M571.628,-150.0135C595.8218,-183.3135 624.4411,-222.7046 648.8109,-256.2467"/>
<polygon fill="#000000" stroke="#000000" stroke-width=".75" points="571.6183,-150.0002 570.2759,-143.559 569.8549,-147.5731 568.0916,-145.1461 568.0916,-145.1461 568.0916,-145.1461 569.8549,-147.5731 565.9072,-146.7331 571.6183,-150.0002 571.6183,-150.0002"/>
</g>
<!-- UserSession -->
<g id="node9" class="node">
<title>UserSession</title>
<polygon fill="#add8e6" stroke="transparent" points="802.9555,-672.2938 802.9555,-694.2938 882.9555,-694.2938 882.9555,-672.2938 802.9555,-672.2938"/>
<polygon fill="none" stroke="#000000" points="802.9555,-672.2938 802.9555,-694.2938 882.9555,-694.2938 882.9555,-672.2938 802.9555,-672.2938"/>
<text text-anchor="start" x="818.24" y="-680.2938" font-family="Times,serif" font-size="10.00" fill="#000000">UserSession</text>
<polygon fill="none" stroke="#000000" points="802.9555,-650.2938 802.9555,-672.2938 882.9555,-672.2938 882.9555,-650.2938 802.9555,-650.2938"/>
<text text-anchor="start" x="807.9555" y="-658.2938" font-family="Times,serif" font-size="10.00" fill="#000000">id: UUID</text>
<polygon fill="none" stroke="#000000" points="802.9555,-628.2938 802.9555,-650.2938 882.9555,-650.2938 882.9555,-628.2938 802.9555,-628.2938"/>
<text text-anchor="start" x="807.9555" y="-636.2938" font-family="Times,serif" font-size="10.00" fill="#000000">userId: UUID</text>
<polygon fill="none" stroke="#000000" points="802.9555,-606.2938 802.9555,-628.2938 882.9555,-628.2938 882.9555,-606.2938 802.9555,-606.2938"/>
<text text-anchor="start" x="807.5515" y="-614.2938" font-family="Times,serif" font-size="10.00" fill="#000000">expiresAt: DATE</text>
<polygon fill="none" stroke="#000000" points="802.9555,-584.2938 802.9555,-606.2938 882.9555,-606.2938 882.9555,-584.2938 802.9555,-584.2938"/>
<text text-anchor="start" x="807.557" y="-592.2938" font-family="Times,serif" font-size="10.00" fill="#000000">createdAt: DATE</text>
</g>
</g>
</svg>
