<?xml version="1.0" encoding="UTF-8" standalone="no"?>
<!DOCTYPE svg PUBLIC "-//W3C//DTD SVG 1.1//EN"
 "http://www.w3.org/Graphics/SVG/1.1/DTD/svg11.dtd">
<!-- Generated by graphviz version 2.40.1 (20161225.0304)
 -->
<!-- Title: models_diagram Pages: 1 -->
<svg width="914pt" height="726pt"
 viewBox="0.00 0.00 914.14 726.01" xmlns="http://www.w3.org/2000/svg" xmlns:xlink="http://www.w3.org/1999/xlink">
<g id="graph0" class="graph" transform="scale(1 1) rotate(0) translate(36 690.0127)">
<title>models_diagram</title>
<polygon fill="#ffffff" stroke="transparent" points="-36,36 -36,-690.0127 878.1423,-690.0127 878.1423,36 -36,36"/>
<!-- Favorites -->
<g id="node1" class="node">
<title>Favorites</title>
<polygon fill="#add8e6" stroke="transparent" points="109,-154 109,-176 211,-176 211,-154 109,-154"/>
<polygon fill="none" stroke="#000000" points="109,-154 109,-176 211,-176 211,-154 109,-154"/>
<text text-anchor="start" x="141.3935" y="-162" font-family="Times,serif" font-size="10.00" fill="#000000">Favorites</text>
<polygon fill="none" stroke="#000000" points="109,-132 109,-154 211,-154 211,-132 109,-132"/>
<text text-anchor="start" x="114" y="-140" font-family="Times,serif" font-size="10.00" fill="#000000">id: UUID</text>
<polygon fill="none" stroke="#000000" points="109,-110 109,-132 211,-132 211,-110 109,-110"/>
<text text-anchor="start" x="114" y="-118" font-family="Times,serif" font-size="10.00" fill="#000000">userId: UUID</text>
<polygon fill="none" stroke="#000000" points="109,-88 109,-110 211,-110 211,-88 109,-88"/>
<text text-anchor="start" x="114" y="-96" font-family="Times,serif" font-size="10.00" fill="#000000">learningPathId: UUID</text>
<polygon fill="none" stroke="#000000" points="109,-66 109,-88 211,-88 211,-66 109,-66"/>
<text text-anchor="start" x="114" y="-74" font-family="Times,serif" font-size="10.00" fill="#000000">createdAt: DATE</text>
<polygon fill="none" stroke="#000000" points="109,-44 109,-66 211,-66 211,-44 109,-44"/>
<text text-anchor="start" x="114" y="-52" font-family="Times,serif" font-size="10.00" fill="#000000">updatedAt: DATE</text>
<polygon fill="none" stroke="#000000" points="109,-22 109,-44 211,-44 211,-22 109,-22"/>
<text text-anchor="start" x="113.767" y="-30" font-family="Times,serif" font-size="10.00" fill="#000000">LearningPathId: UUID</text>
<polygon fill="none" stroke="#000000" points="109,0 109,-22 211,-22 211,0 109,0"/>
<text text-anchor="start" x="114" y="-8" font-family="Times,serif" font-size="10.00" fill="#000000">UserId: UUID</text>
</g>
<!-- LearningPath -->
<g id="node4" class="node">
<title>LearningPath</title>
<polygon fill="#add8e6" stroke="transparent" points="109,-475.8698 109,-497.8698 212,-497.8698 212,-475.8698 109,-475.8698"/>
<polygon fill="none" stroke="#000000" points="109,-475.8698 109,-497.8698 212,-497.8698 212,-475.8698 109,-475.8698"/>
<text text-anchor="start" x="133.564" y="-483.8698" font-family="Times,serif" font-size="10.00" fill="#000000">LearningPath</text>
<polygon fill="none" stroke="#000000" points="109,-453.8698 109,-475.8698 212,-475.8698 212,-453.8698 109,-453.8698"/>
<text text-anchor="start" x="114" y="-461.8698" font-family="Times,serif" font-size="10.00" fill="#000000">id: UUID</text>
<polygon fill="none" stroke="#000000" points="109,-431.8698 109,-453.8698 212,-453.8698 212,-431.8698 109,-431.8698"/>
<text text-anchor="start" x="114" y="-439.8698" font-family="Times,serif" font-size="10.00" fill="#000000">name: STRING</text>
<polygon fill="none" stroke="#000000" points="109,-409.8698 109,-431.8698 212,-431.8698 212,-409.8698 109,-409.8698"/>
<text text-anchor="start" x="114" y="-417.8698" font-family="Times,serif" font-size="10.00" fill="#000000">description: TEXT</text>
<polygon fill="none" stroke="#000000" points="109,-387.8698 109,-409.8698 212,-409.8698 212,-387.8698 109,-387.8698"/>
<text text-anchor="start" x="114" y="-395.8698" font-family="Times,serif" font-size="10.00" fill="#000000">tags: STRING</text>
<polygon fill="none" stroke="#000000" points="109,-365.8698 109,-387.8698 212,-387.8698 212,-365.8698 109,-365.8698"/>
<text text-anchor="start" x="114" y="-373.8698" font-family="Times,serif" font-size="10.00" fill="#000000">difficulty: STRING</text>
<polygon fill="none" stroke="#000000" points="109,-343.8698 109,-365.8698 212,-365.8698 212,-343.8698 109,-343.8698"/>
<text text-anchor="start" x="114" y="-351.8698" font-family="Times,serif" font-size="10.00" fill="#000000">upVotes: NUMBER</text>
<polygon fill="none" stroke="#000000" points="109,-321.8698 109,-343.8698 212,-343.8698 212,-321.8698 109,-321.8698"/>
<text text-anchor="start" x="113.701" y="-329.8698" font-family="Times,serif" font-size="10.00" fill="#000000">downVotes: NUMBER</text>
<polygon fill="none" stroke="#000000" points="109,-299.8698 109,-321.8698 212,-321.8698 212,-299.8698 109,-299.8698"/>
<text text-anchor="start" x="114" y="-307.8698" font-family="Times,serif" font-size="10.00" fill="#000000">userId: UUID</text>
<polygon fill="none" stroke="#000000" points="109,-277.8698 109,-299.8698 212,-299.8698 212,-277.8698 109,-277.8698"/>
<text text-anchor="start" x="114" y="-285.8698" font-family="Times,serif" font-size="10.00" fill="#000000">createdAt: DATE</text>
<polygon fill="none" stroke="#000000" points="109,-255.8698 109,-277.8698 212,-277.8698 212,-255.8698 109,-255.8698"/>
<text text-anchor="start" x="114" y="-263.8698" font-family="Times,serif" font-size="10.00" fill="#000000">updatedAt: DATE</text>
<polygon fill="none" stroke="#000000" points="109,-233.8698 109,-255.8698 212,-255.8698 212,-233.8698 109,-233.8698"/>
<text text-anchor="start" x="114" y="-241.8698" font-family="Times,serif" font-size="10.00" fill="#000000">UserId: UUID</text>
</g>
<!-- Favorites&#45;&gt;LearningPath -->
<g id="edge1" class="edge">
<title>Favorites&#45;&gt;LearningPath</title>
<path fill="none" stroke="#000000" stroke-width=".75" d="M160,-182.3447C160,-198.8685 160,-216.3336 160,-233.659"/>
<polygon fill="#000000" stroke="#000000" stroke-width=".75" points="160.0001,-182.3015 162.7,-176.3015 160,-179.3015 160,-176.3015 160,-176.3015 160,-176.3015 160,-179.3015 157.3,-176.3016 160.0001,-182.3015 160.0001,-182.3015"/>
</g>
<!-- User -->
<g id="node6" class="node">
<title>User</title>
<polygon fill="#add8e6" stroke="transparent" points="346.6423,-303.9349 346.6423,-325.9349 455.6423,-325.9349 455.6423,-303.9349 346.6423,-303.9349"/>
<polygon fill="none" stroke="#000000" points="346.6423,-303.9349 346.6423,-325.9349 455.6423,-325.9349 455.6423,-303.9349 346.6423,-303.9349"/>
<text text-anchor="start" x="391.7043" y="-311.9349" font-family="Times,serif" font-size="10.00" fill="#000000">User</text>
<polygon fill="none" stroke="#000000" points="346.6423,-281.9349 346.6423,-303.9349 455.6423,-303.9349 455.6423,-281.9349 346.6423,-281.9349"/>
<text text-anchor="start" x="351.6423" y="-289.9349" font-family="Times,serif" font-size="10.00" fill="#000000">id: UUID</text>
<polygon fill="none" stroke="#000000" points="346.6423,-259.9349 346.6423,-281.9349 455.6423,-281.9349 455.6423,-259.9349 346.6423,-259.9349"/>
<text text-anchor="start" x="351.6423" y="-267.9349" font-family="Times,serif" font-size="10.00" fill="#000000">email: STRING</text>
<polygon fill="none" stroke="#000000" points="346.6423,-237.9349 346.6423,-259.9349 455.6423,-259.9349 455.6423,-237.9349 346.6423,-237.9349"/>
<text text-anchor="start" x="351.6423" y="-245.9349" font-family="Times,serif" font-size="10.00" fill="#000000">firstName: STRING</text>
<polygon fill="none" stroke="#000000" points="346.6423,-215.9349 346.6423,-237.9349 455.6423,-237.9349 455.6423,-215.9349 346.6423,-215.9349"/>
<text text-anchor="start" x="351.6423" y="-223.9349" font-family="Times,serif" font-size="10.00" fill="#000000">lastName: STRING</text>
<polygon fill="none" stroke="#000000" points="346.6423,-193.9349 346.6423,-215.9349 455.6423,-215.9349 455.6423,-193.9349 346.6423,-193.9349"/>
<text text-anchor="start" x="351.6423" y="-201.9349" font-family="Times,serif" font-size="10.00" fill="#000000">profilePicture: STRING</text>
<polygon fill="none" stroke="#000000" points="346.6423,-171.9349 346.6423,-193.9349 455.6423,-193.9349 455.6423,-171.9349 346.6423,-171.9349"/>
<text text-anchor="start" x="351.2948" y="-179.9349" font-family="Times,serif" font-size="10.00" fill="#000000">passwordHash: STRING</text>
<polygon fill="none" stroke="#000000" points="346.6423,-149.9349 346.6423,-171.9349 455.6423,-171.9349 455.6423,-149.9349 346.6423,-149.9349"/>
<text text-anchor="start" x="351.6423" y="-157.9349" font-family="Times,serif" font-size="10.00" fill="#000000">createdAt: DATE</text>
<polygon fill="none" stroke="#000000" points="346.6423,-127.9349 346.6423,-149.9349 455.6423,-149.9349 455.6423,-127.9349 346.6423,-127.9349"/>
<text text-anchor="start" x="351.6423" y="-135.9349" font-family="Times,serif" font-size="10.00" fill="#000000">updatedAt: DATE</text>
</g>
<!-- Favorites&#45;&gt;User -->
<g id="edge2" class="edge">
<title>Favorites&#45;&gt;User</title>
<path fill="none" stroke="#000000" stroke-width=".75" d="M216.6993,-120.7354C255.7346,-143.2724 307.3112,-173.0501 345.9146,-195.3378"/>
<polygon fill="#000000" stroke="#000000" stroke-width=".75" points="216.2302,-120.4646 212.3841,-115.1262 213.6321,-118.9645 211.034,-117.4645 211.034,-117.4645 211.034,-117.4645 213.6321,-118.9645 209.684,-119.8028 216.2302,-120.4646 216.2302,-120.4646"/>
</g>
<!-- LearningBucket -->
<g id="node2" class="node">
<title>LearningBucket</title>
<polygon fill="#add8e6" stroke="transparent" points="507.6423,-281.9349 507.6423,-303.9349 592.6423,-303.9349 592.6423,-281.9349 507.6423,-281.9349"/>
<polygon fill="none" stroke="#000000" points="507.6423,-281.9349 507.6423,-303.9349 592.6423,-303.9349 592.6423,-281.9349 507.6423,-281.9349"/>
<text text-anchor="start" x="517.9318" y="-289.9349" font-family="Times,serif" font-size="10.00" fill="#000000">LearningBucket</text>
<polygon fill="none" stroke="#000000" points="507.6423,-259.9349 507.6423,-281.9349 592.6423,-281.9349 592.6423,-259.9349 507.6423,-259.9349"/>
<text text-anchor="start" x="512.6423" y="-267.9349" font-family="Times,serif" font-size="10.00" fill="#000000">id: UUID</text>
<polygon fill="none" stroke="#000000" points="507.6423,-237.9349 507.6423,-259.9349 592.6423,-259.9349 592.6423,-237.9349 507.6423,-237.9349"/>
<text text-anchor="start" x="512.6423" y="-245.9349" font-family="Times,serif" font-size="10.00" fill="#000000">name: STRING</text>
<polygon fill="none" stroke="#000000" points="507.6423,-215.9349 507.6423,-237.9349 592.6423,-237.9349 592.6423,-215.9349 507.6423,-215.9349"/>
<text text-anchor="start" x="512.5133" y="-223.9349" font-family="Times,serif" font-size="10.00" fill="#000000">description: TEXT</text>
<polygon fill="none" stroke="#000000" points="507.6423,-193.9349 507.6423,-215.9349 592.6423,-215.9349 592.6423,-193.9349 507.6423,-193.9349"/>
<text text-anchor="start" x="512.6423" y="-201.9349" font-family="Times,serif" font-size="10.00" fill="#000000">tags: STRING</text>
<polygon fill="none" stroke="#000000" points="507.6423,-171.9349 507.6423,-193.9349 592.6423,-193.9349 592.6423,-171.9349 507.6423,-171.9349"/>
<text text-anchor="start" x="512.6423" y="-179.9349" font-family="Times,serif" font-size="10.00" fill="#000000">createdAt: DATE</text>
<polygon fill="none" stroke="#000000" points="507.6423,-149.9349 507.6423,-171.9349 592.6423,-171.9349 592.6423,-149.9349 507.6423,-149.9349"/>
<text text-anchor="start" x="512.6423" y="-157.9349" font-family="Times,serif" font-size="10.00" fill="#000000">updatedAt: DATE</text>
</g>
<!-- LearningBucket&#45;&gt;User -->
<g id="edge3" class="edge">
<title>LearningBucket&#45;&gt;User</title>
<path fill="none" stroke="#000000" stroke-width=".75" d="M500.8081,-226.9349C486.2585,-226.9349 470.221,-226.9349 455.3237,-226.9349"/>
<polygon fill="#000000" stroke="#000000" stroke-width=".75" points="500.9449,-226.935 506.9449,-229.6349 503.9449,-226.9349 506.9449,-226.9349 506.9449,-226.9349 506.9449,-226.9349 503.9449,-226.9349 506.9448,-224.2349 500.9449,-226.935 500.9449,-226.935"/>
</g>
<!-- LearningBucketResource -->
<g id="node3" class="node">
<title>LearningBucketResource</title>
<polygon fill="#add8e6" stroke="transparent" points="731.6423,-292.9349 731.6423,-314.9349 842.6423,-314.9349 842.6423,-292.9349 731.6423,-292.9349"/>
<polygon fill="none" stroke="#000000" points="731.6423,-292.9349 731.6423,-314.9349 842.6423,-314.9349 842.6423,-292.9349 731.6423,-292.9349"/>
<text text-anchor="start" x="736.3298" y="-300.9349" font-family="Times,serif" font-size="10.00" fill="#000000">LearningBucketResource</text>
<polygon fill="none" stroke="#000000" points="731.6423,-270.9349 731.6423,-292.9349 842.6423,-292.9349 842.6423,-270.9349 731.6423,-270.9349"/>
<text text-anchor="start" x="736.6423" y="-278.9349" font-family="Times,serif" font-size="10.00" fill="#000000">id: UUID</text>
<polygon fill="none" stroke="#000000" points="731.6423,-248.9349 731.6423,-270.9349 842.6423,-270.9349 842.6423,-248.9349 731.6423,-248.9349"/>
<text text-anchor="start" x="736.6423" y="-256.9349" font-family="Times,serif" font-size="10.00" fill="#000000">learningBucketId: UUID</text>
<polygon fill="none" stroke="#000000" points="731.6423,-226.9349 731.6423,-248.9349 842.6423,-248.9349 842.6423,-226.9349 731.6423,-226.9349"/>
<text text-anchor="start" x="736.6423" y="-234.9349" font-family="Times,serif" font-size="10.00" fill="#000000">url: STRING</text>
<polygon fill="none" stroke="#000000" points="731.6423,-204.9349 731.6423,-226.9349 842.6423,-226.9349 842.6423,-204.9349 731.6423,-204.9349"/>
<text text-anchor="start" x="736.6423" y="-212.9349" font-family="Times,serif" font-size="10.00" fill="#000000">topic: STRING</text>
<polygon fill="none" stroke="#000000" points="731.6423,-182.9349 731.6423,-204.9349 842.6423,-204.9349 842.6423,-182.9349 731.6423,-182.9349"/>
<text text-anchor="start" x="736.6423" y="-190.9349" font-family="Times,serif" font-size="10.00" fill="#000000">description: TEXT</text>
<polygon fill="none" stroke="#000000" points="731.6423,-160.9349 731.6423,-182.9349 842.6423,-182.9349 842.6423,-160.9349 731.6423,-160.9349"/>
<text text-anchor="start" x="736.6423" y="-168.9349" font-family="Times,serif" font-size="10.00" fill="#000000">createdAt: DATE</text>
<polygon fill="none" stroke="#000000" points="731.6423,-138.9349 731.6423,-160.9349 842.6423,-160.9349 842.6423,-138.9349 731.6423,-138.9349"/>
<text text-anchor="start" x="736.6423" y="-146.9349" font-family="Times,serif" font-size="10.00" fill="#000000">updatedAt: DATE</text>
</g>
<!-- LearningBucketResource&#45;&gt;LearningBucket -->
<g id="edge4" class="edge">
<title>LearningBucketResource&#45;&gt;LearningBucket</title>
<path fill="none" stroke="#000000" stroke-width=".75" d="M725.0156,-226.9349C683.3076,-226.9349 629.2776,-226.9349 592.2761,-226.9349"/>
<polygon fill="#000000" stroke="#000000" stroke-width=".75" points="725.0763,-226.935 731.0763,-229.6349 728.0763,-226.9349 731.0763,-226.9349 731.0763,-226.9349 731.0763,-226.9349 728.0763,-226.9349 731.0763,-224.2349 725.0763,-226.935 725.0763,-226.935"/>
</g>
<!-- LearningPath&#45;&gt;User -->
<g id="edge5" class="edge">
<title>LearningPath&#45;&gt;User</title>
<path fill="none" stroke="#000000" stroke-width=".75" d="M217.2731,-332.8031C256.1856,-310.337 307.3598,-280.7915 345.7569,-258.623"/>
<polygon fill="#000000" stroke="#000000" stroke-width=".75" points="216.82,-333.0647 210.2738,-333.7265 214.2219,-334.5647 211.6238,-336.0647 211.6238,-336.0647 211.6238,-336.0647 214.2219,-334.5647 212.9738,-338.403 216.82,-333.0647 216.82,-333.0647"/>
</g>
<!-- LearningPathResource -->
<g id="node5" class="node">
<title>LearningPathResource</title>
<polygon fill="#add8e6" stroke="transparent" points=".5,-632.0127 .5,-654.0127 127.5,-654.0127 127.5,-632.0127 .5,-632.0127"/>
<polygon fill="none" stroke="#000000" points=".5,-632.0127 .5,-654.0127 127.5,-654.0127 127.5,-632.0127 .5,-632.0127"/>
<text text-anchor="start" x="18.462" y="-640.0127" font-family="Times,serif" font-size="10.00" fill="#000000">LearningPathResource</text>
<polygon fill="none" stroke="#000000" points=".5,-610.0127 .5,-632.0127 127.5,-632.0127 127.5,-610.0127 .5,-610.0127"/>
<text text-anchor="start" x="5.5" y="-618.0127" font-family="Times,serif" font-size="10.00" fill="#000000">id: UUID</text>
<polygon fill="none" stroke="#000000" points=".5,-588.0127 .5,-610.0127 127.5,-610.0127 127.5,-588.0127 .5,-588.0127"/>
<text text-anchor="start" x="5.5" y="-596.0127" font-family="Times,serif" font-size="10.00" fill="#000000">learningPathId: UUID</text>
<polygon fill="none" stroke="#000000" points=".5,-566.0127 .5,-588.0127 127.5,-588.0127 127.5,-566.0127 .5,-566.0127"/>
<text text-anchor="start" x="5.5" y="-574.0127" font-family="Times,serif" font-size="10.00" fill="#000000">url: STRING</text>
<polygon fill="none" stroke="#000000" points=".5,-544.0127 .5,-566.0127 127.5,-566.0127 127.5,-544.0127 .5,-544.0127"/>
<text text-anchor="start" x="5.5" y="-552.0127" font-family="Times,serif" font-size="10.00" fill="#000000">topic: STRING</text>
<polygon fill="none" stroke="#000000" points=".5,-522.0127 .5,-544.0127 127.5,-544.0127 127.5,-522.0127 .5,-522.0127"/>
<text text-anchor="start" x="5.5" y="-530.0127" font-family="Times,serif" font-size="10.00" fill="#000000">description: TEXT</text>
<polygon fill="none" stroke="#000000" points=".5,-500.0127 .5,-522.0127 127.5,-522.0127 127.5,-500.0127 .5,-500.0127"/>
<text text-anchor="start" x="5.5" y="-508.0127" font-family="Times,serif" font-size="10.00" fill="#000000">type: STRING</text>
<polygon fill="none" stroke="#000000" points=".5,-478.0127 .5,-500.0127 127.5,-500.0127 127.5,-478.0127 .5,-478.0127"/>
<text text-anchor="start" x="5.268" y="-486.0127" font-family="Times,serif" font-size="10.00" fill="#000000">sequenceNumber: NUMBER</text>
<polygon fill="none" stroke="#000000" points=".5,-456.0127 .5,-478.0127 127.5,-478.0127 127.5,-456.0127 .5,-456.0127"/>
<text text-anchor="start" x="5.5" y="-464.0127" font-family="Times,serif" font-size="10.00" fill="#000000">createdAt: DATE</text>
<polygon fill="none" stroke="#000000" points=".5,-434.0127 .5,-456.0127 127.5,-456.0127 127.5,-434.0127 .5,-434.0127"/>
<text text-anchor="start" x="5.5" y="-442.0127" font-family="Times,serif" font-size="10.00" fill="#000000">updatedAt: DATE</text>
<polygon fill="none" stroke="#000000" points=".5,-412.0127 .5,-434.0127 127.5,-434.0127 127.5,-412.0127 .5,-412.0127"/>
<text text-anchor="start" x="5.5" y="-420.0127" font-family="Times,serif" font-size="10.00" fill="#000000">LearningPathId: UUID</text>
</g>
<!-- LearningPathResource&#45;&gt;LearningPath -->
<g id="edge6" class="edge">
<title>LearningPathResource&#45;&gt;LearningPath</title>
<path fill="none" stroke="#000000" stroke-width=".75" d="M127.1659,-422.7401C127.2012,-422.679 127.2364,-422.618 127.2717,-422.5569"/>
<polygon fill="#000000" stroke="#000000" stroke-width=".75" points="130.0615,-417.7269 124.7216,-421.5727 128.5608,-420.3251 127.0601,-422.9234 127.0601,-422.9234 127.0601,-422.9234 128.5608,-420.3251 129.3985,-424.274 130.0615,-417.7269 130.0615,-417.7269"/>
</g>
<!-- UserSession -->
<g id="node7" class="node">
<title>UserSession</title>
<polygon fill="#add8e6" stroke="transparent" points="464.2141,-493.9349 464.2141,-515.9349 544.2141,-515.9349 544.2141,-493.9349 464.2141,-493.9349"/>
<polygon fill="none" stroke="#000000" points="464.2141,-493.9349 464.2141,-515.9349 544.2141,-515.9349 544.2141,-493.9349 464.2141,-493.9349"/>
<text text-anchor="start" x="479.4986" y="-501.9349" font-family="Times,serif" font-size="10.00" fill="#000000">UserSession</text>
<polygon fill="none" stroke="#000000" points="464.2141,-471.9349 464.2141,-493.9349 544.2141,-493.9349 544.2141,-471.9349 464.2141,-471.9349"/>
<text text-anchor="start" x="469.2141" y="-479.9349" font-family="Times,serif" font-size="10.00" fill="#000000">id: UUID</text>
<polygon fill="none" stroke="#000000" points="464.2141,-449.9349 464.2141,-471.9349 544.2141,-471.9349 544.2141,-449.9349 464.2141,-449.9349"/>
<text text-anchor="start" x="469.2141" y="-457.9349" font-family="Times,serif" font-size="10.00" fill="#000000">userId: UUID</text>
<polygon fill="none" stroke="#000000" points="464.2141,-427.9349 464.2141,-449.9349 544.2141,-449.9349 544.2141,-427.9349 464.2141,-427.9349"/>
<text text-anchor="start" x="468.8101" y="-435.9349" font-family="Times,serif" font-size="10.00" fill="#000000">expiresAt: DATE</text>
<polygon fill="none" stroke="#000000" points="464.2141,-405.9349 464.2141,-427.9349 544.2141,-427.9349 544.2141,-405.9349 464.2141,-405.9349"/>
<text text-anchor="start" x="468.8156" y="-413.9349" font-family="Times,serif" font-size="10.00" fill="#000000">createdAt: DATE</text>
</g>
</g>
</svg>
