<?xml version="1.0" encoding="UTF-8" standalone="no"?>
<!DOCTYPE svg PUBLIC "-//W3C//DTD SVG 1.1//EN"
 "http://www.w3.org/Graphics/SVG/1.1/DTD/svg11.dtd">
<!-- Generated by graphviz version 2.40.1 (20161225.0304)
 -->
<!-- Title: models_diagram Pages: 1 -->
<svg width="1252pt" height="1101pt"
 viewBox="0.00 0.00 1251.92 1100.88" xmlns="http://www.w3.org/2000/svg" xmlns:xlink="http://www.w3.org/1999/xlink">
<g id="graph0" class="graph" transform="scale(1 1) rotate(0) translate(36 1064.8776)">
<title>models_diagram</title>
<polygon fill="#ffffff" stroke="transparent" points="-36,36 -36,-1064.8776 1215.9192,-1064.8776 1215.9192,36 -36,36"/>
<!-- Downvotes -->
<g id="node1" class="node">
<title>Downvotes</title>
<polygon fill="#add8e6" stroke="transparent" points="769.1925,-285.831 769.1925,-307.831 868.1925,-307.831 868.1925,-285.831 769.1925,-285.831"/>
<polygon fill="none" stroke="#000000" points="769.1925,-285.831 769.1925,-307.831 868.1925,-307.831 868.1925,-285.831 769.1925,-285.831"/>
<text text-anchor="start" x="795.92" y="-293.831" font-family="Times,serif" font-size="10.00" fill="#000000">Downvotes</text>
<polygon fill="none" stroke="#000000" points="769.1925,-263.831 769.1925,-285.831 868.1925,-285.831 868.1925,-263.831 769.1925,-263.831"/>
<text text-anchor="start" x="774.1925" y="-271.831" font-family="Times,serif" font-size="10.00" fill="#000000">id: UUID</text>
<polygon fill="none" stroke="#000000" points="769.1925,-241.831 769.1925,-263.831 868.1925,-263.831 868.1925,-241.831 769.1925,-241.831"/>
<text text-anchor="start" x="774.1925" y="-249.831" font-family="Times,serif" font-size="10.00" fill="#000000">userId: UUID</text>
<polygon fill="none" stroke="#000000" points="769.1925,-219.831 769.1925,-241.831 868.1925,-241.831 868.1925,-219.831 769.1925,-219.831"/>
<text text-anchor="start" x="774.1245" y="-227.831" font-family="Times,serif" font-size="10.00" fill="#000000">learningPathId: UUID</text>
<polygon fill="none" stroke="#000000" points="769.1925,-197.831 769.1925,-219.831 868.1925,-219.831 868.1925,-197.831 769.1925,-197.831"/>
<text text-anchor="start" x="774.1925" y="-205.831" font-family="Times,serif" font-size="10.00" fill="#000000">createdAt: DATE</text>
<polygon fill="none" stroke="#000000" points="769.1925,-175.831 769.1925,-197.831 868.1925,-197.831 868.1925,-175.831 769.1925,-175.831"/>
<text text-anchor="start" x="774.1925" y="-183.831" font-family="Times,serif" font-size="10.00" fill="#000000">updatedAt: DATE</text>
<polygon fill="none" stroke="#000000" points="769.1925,-153.831 769.1925,-175.831 868.1925,-175.831 868.1925,-153.831 769.1925,-153.831"/>
<text text-anchor="start" x="774.1925" y="-161.831" font-family="Times,serif" font-size="10.00" fill="#000000">UserId: UUID</text>
</g>
<!-- LearningPath -->
<g id="node6" class="node">
<title>LearningPath</title>
<polygon fill="#add8e6" stroke="transparent" points="872.4192,-618.9388 872.4192,-640.9388 975.4192,-640.9388 975.4192,-618.9388 872.4192,-618.9388"/>
<polygon fill="none" stroke="#000000" points="872.4192,-618.9388 872.4192,-640.9388 975.4192,-640.9388 975.4192,-618.9388 872.4192,-618.9388"/>
<text text-anchor="start" x="896.9832" y="-626.9388" font-family="Times,serif" font-size="10.00" fill="#000000">LearningPath</text>
<polygon fill="none" stroke="#000000" points="872.4192,-596.9388 872.4192,-618.9388 975.4192,-618.9388 975.4192,-596.9388 872.4192,-596.9388"/>
<text text-anchor="start" x="877.4192" y="-604.9388" font-family="Times,serif" font-size="10.00" fill="#000000">id: UUID</text>
<polygon fill="none" stroke="#000000" points="872.4192,-574.9388 872.4192,-596.9388 975.4192,-596.9388 975.4192,-574.9388 872.4192,-574.9388"/>
<text text-anchor="start" x="877.4192" y="-582.9388" font-family="Times,serif" font-size="10.00" fill="#000000">name: STRING</text>
<polygon fill="none" stroke="#000000" points="872.4192,-552.9388 872.4192,-574.9388 975.4192,-574.9388 975.4192,-552.9388 872.4192,-552.9388"/>
<text text-anchor="start" x="877.4192" y="-560.9388" font-family="Times,serif" font-size="10.00" fill="#000000">description: TEXT</text>
<polygon fill="none" stroke="#000000" points="872.4192,-530.9388 872.4192,-552.9388 975.4192,-552.9388 975.4192,-530.9388 872.4192,-530.9388"/>
<text text-anchor="start" x="877.4192" y="-538.9388" font-family="Times,serif" font-size="10.00" fill="#000000">difficulty: STRING</text>
<polygon fill="none" stroke="#000000" points="872.4192,-508.9388 872.4192,-530.9388 975.4192,-530.9388 975.4192,-508.9388 872.4192,-508.9388"/>
<text text-anchor="start" x="877.4192" y="-516.9388" font-family="Times,serif" font-size="10.00" fill="#000000">upVotes: NUMBER</text>
<polygon fill="none" stroke="#000000" points="872.4192,-486.9388 872.4192,-508.9388 975.4192,-508.9388 975.4192,-486.9388 872.4192,-486.9388"/>
<text text-anchor="start" x="877.1202" y="-494.9388" font-family="Times,serif" font-size="10.00" fill="#000000">downVotes: NUMBER</text>
<polygon fill="none" stroke="#000000" points="872.4192,-464.9388 872.4192,-486.9388 975.4192,-486.9388 975.4192,-464.9388 872.4192,-464.9388"/>
<text text-anchor="start" x="877.4192" y="-472.9388" font-family="Times,serif" font-size="10.00" fill="#000000">userId: UUID</text>
<polygon fill="none" stroke="#000000" points="872.4192,-442.9388 872.4192,-464.9388 975.4192,-464.9388 975.4192,-442.9388 872.4192,-442.9388"/>
<text text-anchor="start" x="877.4192" y="-450.9388" font-family="Times,serif" font-size="10.00" fill="#000000">createdAt: DATE</text>
<polygon fill="none" stroke="#000000" points="872.4192,-420.9388 872.4192,-442.9388 975.4192,-442.9388 975.4192,-420.9388 872.4192,-420.9388"/>
<text text-anchor="start" x="877.4192" y="-428.9388" font-family="Times,serif" font-size="10.00" fill="#000000">updatedAt: DATE</text>
<polygon fill="none" stroke="#000000" points="872.4192,-398.9388 872.4192,-420.9388 975.4192,-420.9388 975.4192,-398.9388 872.4192,-398.9388"/>
<text text-anchor="start" x="877.4192" y="-406.9388" font-family="Times,serif" font-size="10.00" fill="#000000">UserId: UUID</text>
</g>
<!-- Downvotes&#45;&gt;LearningPath -->
<g id="edge5" class="edge">
<title>Downvotes&#45;&gt;LearningPath</title>
<path fill="none" stroke="#000000" stroke-width=".75" d="M848.4205,-313.8815C858.0694,-340.3918 868.9531,-370.2944 879.3756,-398.9302"/>
<polygon fill="#000000" stroke="#000000" stroke-width=".75" points="848.3053,-313.565 848.7903,-307.0034 847.2792,-310.7459 846.2531,-307.9268 846.2531,-307.9268 846.2531,-307.9268 847.2792,-310.7459 843.716,-308.8503 848.3053,-313.565 848.3053,-313.565"/>
</g>
<!-- User -->
<g id="node11" class="node">
<title>User</title>
<polygon fill="#add8e6" stroke="transparent" points="194.7614,-229.425 194.7614,-251.425 303.7614,-251.425 303.7614,-229.425 194.7614,-229.425"/>
<polygon fill="none" stroke="#000000" points="194.7614,-229.425 194.7614,-251.425 303.7614,-251.425 303.7614,-229.425 194.7614,-229.425"/>
<text text-anchor="start" x="239.8234" y="-237.425" font-family="Times,serif" font-size="10.00" fill="#000000">User</text>
<polygon fill="none" stroke="#000000" points="194.7614,-207.425 194.7614,-229.425 303.7614,-229.425 303.7614,-207.425 194.7614,-207.425"/>
<text text-anchor="start" x="199.7614" y="-215.425" font-family="Times,serif" font-size="10.00" fill="#000000">id: UUID</text>
<polygon fill="none" stroke="#000000" points="194.7614,-185.425 194.7614,-207.425 303.7614,-207.425 303.7614,-185.425 194.7614,-185.425"/>
<text text-anchor="start" x="199.7614" y="-193.425" font-family="Times,serif" font-size="10.00" fill="#000000">email: STRING</text>
<polygon fill="none" stroke="#000000" points="194.7614,-163.425 194.7614,-185.425 303.7614,-185.425 303.7614,-163.425 194.7614,-163.425"/>
<text text-anchor="start" x="199.7614" y="-171.425" font-family="Times,serif" font-size="10.00" fill="#000000">firstName: STRING</text>
<polygon fill="none" stroke="#000000" points="194.7614,-141.425 194.7614,-163.425 303.7614,-163.425 303.7614,-141.425 194.7614,-141.425"/>
<text text-anchor="start" x="199.7614" y="-149.425" font-family="Times,serif" font-size="10.00" fill="#000000">lastName: STRING</text>
<polygon fill="none" stroke="#000000" points="194.7614,-119.425 194.7614,-141.425 303.7614,-141.425 303.7614,-119.425 194.7614,-119.425"/>
<text text-anchor="start" x="199.7614" y="-127.425" font-family="Times,serif" font-size="10.00" fill="#000000">profilePicture: STRING</text>
<polygon fill="none" stroke="#000000" points="194.7614,-97.425 194.7614,-119.425 303.7614,-119.425 303.7614,-97.425 194.7614,-97.425"/>
<text text-anchor="start" x="199.7614" y="-105.425" font-family="Times,serif" font-size="10.00" fill="#000000">googleId: STRING</text>
<polygon fill="none" stroke="#000000" points="194.7614,-75.425 194.7614,-97.425 303.7614,-97.425 303.7614,-75.425 194.7614,-75.425"/>
<text text-anchor="start" x="199.7614" y="-83.425" font-family="Times,serif" font-size="10.00" fill="#000000">facebookId: STRING</text>
<polygon fill="none" stroke="#000000" points="194.7614,-53.425 194.7614,-75.425 303.7614,-75.425 303.7614,-53.425 194.7614,-53.425"/>
<text text-anchor="start" x="199.4139" y="-61.425" font-family="Times,serif" font-size="10.00" fill="#000000">passwordHash: STRING</text>
<polygon fill="none" stroke="#000000" points="194.7614,-31.425 194.7614,-53.425 303.7614,-53.425 303.7614,-31.425 194.7614,-31.425"/>
<text text-anchor="start" x="199.7614" y="-39.425" font-family="Times,serif" font-size="10.00" fill="#000000">createdAt: DATE</text>
<polygon fill="none" stroke="#000000" points="194.7614,-9.425 194.7614,-31.425 303.7614,-31.425 303.7614,-9.425 194.7614,-9.425"/>
<text text-anchor="start" x="199.7614" y="-17.425" font-family="Times,serif" font-size="10.00" fill="#000000">updatedAt: DATE</text>
</g>
<!-- Downvotes&#45;&gt;User -->
<g id="edge6" class="edge">
<title>Downvotes&#45;&gt;User</title>
<path fill="none" stroke="#000000" stroke-width=".75" d="M762.6059,-221.0296C653.4158,-201.7764 412.1308,-159.2314 303.5708,-140.0893"/>
<polygon fill="#000000" stroke="#000000" stroke-width=".75" points="762.7465,-221.0543 768.1865,-224.7553 765.701,-221.5753 768.6554,-222.0963 768.6554,-222.0963 768.6554,-222.0963 765.701,-221.5753 769.1243,-219.4373 762.7465,-221.0543 762.7465,-221.0543"/>
</g>
<!-- Favorites -->
<g id="node2" class="node">
<title>Favorites</title>
<polygon fill="#add8e6" stroke="transparent" points="0,-432.1078 0,-454.1078 102,-454.1078 102,-432.1078 0,-432.1078"/>
<polygon fill="none" stroke="#000000" points="0,-432.1078 0,-454.1078 102,-454.1078 102,-432.1078 0,-432.1078"/>
<text text-anchor="start" x="32.3935" y="-440.1078" font-family="Times,serif" font-size="10.00" fill="#000000">Favorites</text>
<polygon fill="none" stroke="#000000" points="0,-410.1078 0,-432.1078 102,-432.1078 102,-410.1078 0,-410.1078"/>
<text text-anchor="start" x="5" y="-418.1078" font-family="Times,serif" font-size="10.00" fill="#000000">id: UUID</text>
<polygon fill="none" stroke="#000000" points="0,-388.1078 0,-410.1078 102,-410.1078 102,-388.1078 0,-388.1078"/>
<text text-anchor="start" x="5" y="-396.1078" font-family="Times,serif" font-size="10.00" fill="#000000">userId: UUID</text>
<polygon fill="none" stroke="#000000" points="0,-366.1078 0,-388.1078 102,-388.1078 102,-366.1078 0,-366.1078"/>
<text text-anchor="start" x="5" y="-374.1078" font-family="Times,serif" font-size="10.00" fill="#000000">learningPathId: UUID</text>
<polygon fill="none" stroke="#000000" points="0,-344.1078 0,-366.1078 102,-366.1078 102,-344.1078 0,-344.1078"/>
<text text-anchor="start" x="5" y="-352.1078" font-family="Times,serif" font-size="10.00" fill="#000000">createdAt: DATE</text>
<polygon fill="none" stroke="#000000" points="0,-322.1078 0,-344.1078 102,-344.1078 102,-322.1078 0,-322.1078"/>
<text text-anchor="start" x="5" y="-330.1078" font-family="Times,serif" font-size="10.00" fill="#000000">updatedAt: DATE</text>
<polygon fill="none" stroke="#000000" points="0,-300.1078 0,-322.1078 102,-322.1078 102,-300.1078 0,-300.1078"/>
<text text-anchor="start" x="4.767" y="-308.1078" font-family="Times,serif" font-size="10.00" fill="#000000">LearningPathId: UUID</text>
<polygon fill="none" stroke="#000000" points="0,-278.1078 0,-300.1078 102,-300.1078 102,-278.1078 0,-278.1078"/>
<text text-anchor="start" x="5" y="-286.1078" font-family="Times,serif" font-size="10.00" fill="#000000">UserId: UUID</text>
</g>
<!-- Favorites&#45;&gt;LearningPath -->
<g id="edge7" class="edge">
<title>Favorites&#45;&gt;LearningPath</title>
<path fill="none" stroke="#000000" stroke-width=".75" d="M108.351,-376.2203C268.5424,-404.4664 718.9912,-483.8926 871.893,-510.8534"/>
<polygon fill="#000000" stroke="#000000" stroke-width=".75" points="108.2256,-376.1983 102.7856,-372.4973 105.2712,-375.6773 102.3167,-375.1563 102.3167,-375.1563 102.3167,-375.1563 105.2712,-375.6773 101.8478,-377.8153 108.2256,-376.1983 108.2256,-376.1983"/>
</g>
<!-- Favorites&#45;&gt;User -->
<g id="edge8" class="edge">
<title>Favorites&#45;&gt;User</title>
<path fill="none" stroke="#000000" stroke-width=".75" d="M106.1881,-300.3372C133.6008,-267.668 166.6214,-228.3156 193.9785,-195.7127"/>
<polygon fill="#000000" stroke="#000000" stroke-width=".75" points="106.0424,-300.5108 100.1173,-303.3716 104.114,-302.809 102.1857,-305.1071 102.1857,-305.1071 102.1857,-305.1071 104.114,-302.809 104.254,-306.8426 106.0424,-300.5108 106.0424,-300.5108"/>
</g>
<!-- LearningBucket -->
<g id="node3" class="node">
<title>LearningBucket</title>
<polygon fill="#add8e6" stroke="transparent" points="776.1925,-875.0466 776.1925,-897.0466 861.1925,-897.0466 861.1925,-875.0466 776.1925,-875.0466"/>
<polygon fill="none" stroke="#000000" points="776.1925,-875.0466 776.1925,-897.0466 861.1925,-897.0466 861.1925,-875.0466 776.1925,-875.0466"/>
<text text-anchor="start" x="786.482" y="-883.0466" font-family="Times,serif" font-size="10.00" fill="#000000">LearningBucket</text>
<polygon fill="none" stroke="#000000" points="776.1925,-853.0466 776.1925,-875.0466 861.1925,-875.0466 861.1925,-853.0466 776.1925,-853.0466"/>
<text text-anchor="start" x="781.1925" y="-861.0466" font-family="Times,serif" font-size="10.00" fill="#000000">id: UUID</text>
<polygon fill="none" stroke="#000000" points="776.1925,-831.0466 776.1925,-853.0466 861.1925,-853.0466 861.1925,-831.0466 776.1925,-831.0466"/>
<text text-anchor="start" x="781.1925" y="-839.0466" font-family="Times,serif" font-size="10.00" fill="#000000">name: STRING</text>
<polygon fill="none" stroke="#000000" points="776.1925,-809.0466 776.1925,-831.0466 861.1925,-831.0466 861.1925,-809.0466 776.1925,-809.0466"/>
<text text-anchor="start" x="781.0635" y="-817.0466" font-family="Times,serif" font-size="10.00" fill="#000000">description: TEXT</text>
<polygon fill="none" stroke="#000000" points="776.1925,-787.0466 776.1925,-809.0466 861.1925,-809.0466 861.1925,-787.0466 776.1925,-787.0466"/>
<text text-anchor="start" x="781.1925" y="-795.0466" font-family="Times,serif" font-size="10.00" fill="#000000">userId: UUID</text>
<polygon fill="none" stroke="#000000" points="776.1925,-765.0466 776.1925,-787.0466 861.1925,-787.0466 861.1925,-765.0466 776.1925,-765.0466"/>
<text text-anchor="start" x="781.1925" y="-773.0466" font-family="Times,serif" font-size="10.00" fill="#000000">createdAt: DATE</text>
<polygon fill="none" stroke="#000000" points="776.1925,-743.0466 776.1925,-765.0466 861.1925,-765.0466 861.1925,-743.0466 776.1925,-743.0466"/>
<text text-anchor="start" x="781.1925" y="-751.0466" font-family="Times,serif" font-size="10.00" fill="#000000">updatedAt: DATE</text>
<polygon fill="none" stroke="#000000" points="776.1925,-721.0466 776.1925,-743.0466 861.1925,-743.0466 861.1925,-721.0466 776.1925,-721.0466"/>
<text text-anchor="start" x="781.1925" y="-729.0466" font-family="Times,serif" font-size="10.00" fill="#000000">UserId: UUID</text>
</g>
<!-- LearningBucketTag -->
<g id="node5" class="node">
<title>LearningBucketTag</title>
<polygon fill="#add8e6" stroke="transparent" points="497.7494,-1006.8776 497.7494,-1028.8776 606.7494,-1028.8776 606.7494,-1006.8776 497.7494,-1006.8776"/>
<polygon fill="none" stroke="#000000" points="497.7494,-1006.8776 497.7494,-1028.8776 606.7494,-1028.8776 606.7494,-1006.8776 497.7494,-1006.8776"/>
<text text-anchor="start" x="512.2649" y="-1014.8776" font-family="Times,serif" font-size="10.00" fill="#000000">LearningBucketTag</text>
<polygon fill="none" stroke="#000000" points="497.7494,-984.8776 497.7494,-1006.8776 606.7494,-1006.8776 606.7494,-984.8776 497.7494,-984.8776"/>
<text text-anchor="start" x="502.7494" y="-992.8776" font-family="Times,serif" font-size="10.00" fill="#000000">id: UUID</text>
<polygon fill="none" stroke="#000000" points="497.7494,-962.8776 497.7494,-984.8776 606.7494,-984.8776 606.7494,-962.8776 497.7494,-962.8776"/>
<text text-anchor="start" x="502.4069" y="-970.8776" font-family="Times,serif" font-size="10.00" fill="#000000">learningBucketId: UUID</text>
<polygon fill="none" stroke="#000000" points="497.7494,-940.8776 497.7494,-962.8776 606.7494,-962.8776 606.7494,-940.8776 497.7494,-940.8776"/>
<text text-anchor="start" x="502.7494" y="-948.8776" font-family="Times,serif" font-size="10.00" fill="#000000">tagId: UUID</text>
<polygon fill="none" stroke="#000000" points="497.7494,-918.8776 497.7494,-940.8776 606.7494,-940.8776 606.7494,-918.8776 497.7494,-918.8776"/>
<text text-anchor="start" x="502.7494" y="-926.8776" font-family="Times,serif" font-size="10.00" fill="#000000">createdAt: DATE</text>
<polygon fill="none" stroke="#000000" points="497.7494,-896.8776 497.7494,-918.8776 606.7494,-918.8776 606.7494,-896.8776 497.7494,-896.8776"/>
<text text-anchor="start" x="502.7494" y="-904.8776" font-family="Times,serif" font-size="10.00" fill="#000000">updatedAt: DATE</text>
</g>
<!-- LearningBucket&#45;&gt;LearningBucketTag -->
<g id="edge1" class="edge">
<title>LearningBucket&#45;&gt;LearningBucketTag</title>
<path fill="none" stroke="#000000" stroke-width=".75" d="M775.6792,-833.5917C731.451,-859.1268 661.8213,-899.3276 611.9488,-928.1215"/>
<polygon fill="#000000" stroke="#000000" stroke-width=".75" points="611.7742,-928.2223 605.228,-928.884 609.1761,-929.7223 606.578,-931.2223 606.578,-931.2223 606.578,-931.2223 609.1761,-929.7223 607.9281,-933.5606 611.7742,-928.2223 611.7742,-928.2223"/>
</g>
<!-- LearningBucket&#45;&gt;User -->
<g id="edge9" class="edge">
<title>LearningBucket&#45;&gt;User</title>
<path fill="none" stroke="#000000" stroke-width=".75" d="M771.6739,-753.6079C667.3178,-629.2411 414.9754,-328.5112 303.391,-195.53"/>
<polygon fill="#000000" stroke="#000000" stroke-width=".75" points="771.7688,-753.7209 773.5572,-760.0528 773.6972,-756.0191 775.6255,-758.3172 775.6255,-758.3172 775.6255,-758.3172 773.6972,-756.0191 777.6939,-756.5817 771.7688,-753.7209 771.7688,-753.7209"/>
</g>
<!-- LearningBucketResource -->
<g id="node4" class="node">
<title>LearningBucketResource</title>
<polygon fill="#add8e6" stroke="transparent" points="893.1861,-995.9633 893.1861,-1017.9633 1006.1861,-1017.9633 1006.1861,-995.9633 893.1861,-995.9633"/>
<polygon fill="none" stroke="#000000" points="893.1861,-995.9633 893.1861,-1017.9633 1006.1861,-1017.9633 1006.1861,-995.9633 893.1861,-995.9633"/>
<text text-anchor="start" x="898.8736" y="-1003.9633" font-family="Times,serif" font-size="10.00" fill="#000000">LearningBucketResource</text>
<polygon fill="none" stroke="#000000" points="893.1861,-973.9633 893.1861,-995.9633 1006.1861,-995.9633 1006.1861,-973.9633 893.1861,-973.9633"/>
<text text-anchor="start" x="898.1861" y="-981.9633" font-family="Times,serif" font-size="10.00" fill="#000000">id: UUID</text>
<polygon fill="none" stroke="#000000" points="893.1861,-951.9633 893.1861,-973.9633 1006.1861,-973.9633 1006.1861,-951.9633 893.1861,-951.9633"/>
<text text-anchor="start" x="898.1861" y="-959.9633" font-family="Times,serif" font-size="10.00" fill="#000000">learningBucketId: UUID</text>
<polygon fill="none" stroke="#000000" points="893.1861,-929.9633 893.1861,-951.9633 1006.1861,-951.9633 1006.1861,-929.9633 893.1861,-929.9633"/>
<text text-anchor="start" x="898.1861" y="-937.9633" font-family="Times,serif" font-size="10.00" fill="#000000">url: STRING</text>
<polygon fill="none" stroke="#000000" points="893.1861,-907.9633 893.1861,-929.9633 1006.1861,-929.9633 1006.1861,-907.9633 893.1861,-907.9633"/>
<text text-anchor="start" x="898.1861" y="-915.9633" font-family="Times,serif" font-size="10.00" fill="#000000">topic: STRING</text>
<polygon fill="none" stroke="#000000" points="893.1861,-885.9633 893.1861,-907.9633 1006.1861,-907.9633 1006.1861,-885.9633 893.1861,-885.9633"/>
<text text-anchor="start" x="898.1861" y="-893.9633" font-family="Times,serif" font-size="10.00" fill="#000000">description: TEXT</text>
<polygon fill="none" stroke="#000000" points="893.1861,-863.9633 893.1861,-885.9633 1006.1861,-885.9633 1006.1861,-863.9633 893.1861,-863.9633"/>
<text text-anchor="start" x="898.1861" y="-871.9633" font-family="Times,serif" font-size="10.00" fill="#000000">createdAt: DATE</text>
<polygon fill="none" stroke="#000000" points="893.1861,-841.9633 893.1861,-863.9633 1006.1861,-863.9633 1006.1861,-841.9633 893.1861,-841.9633"/>
<text text-anchor="start" x="898.1861" y="-849.9633" font-family="Times,serif" font-size="10.00" fill="#000000">updatedAt: DATE</text>
<polygon fill="none" stroke="#000000" points="893.1861,-819.9633 893.1861,-841.9633 1006.1861,-841.9633 1006.1861,-819.9633 893.1861,-819.9633"/>
<text text-anchor="start" x="898.1786" y="-827.9633" font-family="Times,serif" font-size="10.00" fill="#000000">LearningBucketId: UUID</text>
</g>
<!-- LearningBucketResource&#45;&gt;LearningBucket -->
<g id="edge10" class="edge">
<title>LearningBucketResource&#45;&gt;LearningBucket</title>
<path fill="none" stroke="#000000" stroke-width=".75" d="M887.7333,-867.3982C878.6072,-859.7405 869.3761,-851.9947 860.7521,-844.7583"/>
<polygon fill="#000000" stroke="#000000" stroke-width=".75" points="887.896,-867.5348 890.7568,-873.4598 890.1942,-869.4631 892.4923,-871.3915 892.4923,-871.3915 892.4923,-871.3915 890.1942,-869.4631 894.2279,-869.3232 887.896,-867.5348 887.896,-867.5348"/>
</g>
<!-- LearningPathTag -->
<g id="node8" class="node">
<title>LearningPathTag</title>
<polygon fill="#add8e6" stroke="transparent" points="2,-717.7699 2,-739.7699 101,-739.7699 101,-717.7699 2,-717.7699"/>
<polygon fill="none" stroke="#000000" points="2,-717.7699 2,-739.7699 101,-739.7699 101,-717.7699 2,-717.7699"/>
<text text-anchor="start" x="16.79" y="-725.7699" font-family="Times,serif" font-size="10.00" fill="#000000">LearningPathTag</text>
<polygon fill="none" stroke="#000000" points="2,-695.7699 2,-717.7699 101,-717.7699 101,-695.7699 2,-695.7699"/>
<text text-anchor="start" x="7" y="-703.7699" font-family="Times,serif" font-size="10.00" fill="#000000">id: UUID</text>
<polygon fill="none" stroke="#000000" points="2,-673.7699 2,-695.7699 101,-695.7699 101,-673.7699 2,-673.7699"/>
<text text-anchor="start" x="6.932" y="-681.7699" font-family="Times,serif" font-size="10.00" fill="#000000">learningPathId: UUID</text>
<polygon fill="none" stroke="#000000" points="2,-651.7699 2,-673.7699 101,-673.7699 101,-651.7699 2,-651.7699"/>
<text text-anchor="start" x="7" y="-659.7699" font-family="Times,serif" font-size="10.00" fill="#000000">tagId: UUID</text>
<polygon fill="none" stroke="#000000" points="2,-629.7699 2,-651.7699 101,-651.7699 101,-629.7699 2,-629.7699"/>
<text text-anchor="start" x="7" y="-637.7699" font-family="Times,serif" font-size="10.00" fill="#000000">createdAt: DATE</text>
<polygon fill="none" stroke="#000000" points="2,-607.7699 2,-629.7699 101,-629.7699 101,-607.7699 2,-607.7699"/>
<text text-anchor="start" x="7" y="-615.7699" font-family="Times,serif" font-size="10.00" fill="#000000">updatedAt: DATE</text>
</g>
<!-- LearningPath&#45;&gt;LearningPathTag -->
<g id="edge2" class="edge">
<title>LearningPath&#45;&gt;LearningPathTag</title>
<path fill="none" stroke="#000000" stroke-width=".75" d="M871.7807,-529.0441C718.1885,-556.1265 265.0723,-636.0231 106.5354,-663.9775"/>
<polygon fill="#000000" stroke="#000000" stroke-width=".75" points="106.476,-663.9879 100.0983,-662.3709 103.5216,-664.5089 100.5671,-665.0298 100.5671,-665.0298 100.5671,-665.0298 103.5216,-664.5089 101.036,-667.6888 106.476,-663.9879 106.476,-663.9879"/>
</g>
<!-- LearningPath&#45;&gt;User -->
<g id="edge11" class="edge">
<title>LearningPath&#45;&gt;User</title>
<path fill="none" stroke="#000000" stroke-width=".75" d="M866.668,-487.1735C738.8288,-413.3655 429.6668,-234.8708 303.6296,-162.1031"/>
<polygon fill="#000000" stroke="#000000" stroke-width=".75" points="866.6824,-487.1818 870.5286,-492.5201 869.2805,-488.6818 871.8786,-490.1819 871.8786,-490.1819 871.8786,-490.1819 869.2805,-488.6818 873.2286,-487.8436 866.6824,-487.1818 866.6824,-487.1818"/>
</g>
<!-- LearningPathResource -->
<g id="node7" class="node">
<title>LearningPathResource</title>
<polygon fill="#add8e6" stroke="transparent" points="1053.4192,-618.9388 1053.4192,-640.9388 1180.4192,-640.9388 1180.4192,-618.9388 1053.4192,-618.9388"/>
<polygon fill="none" stroke="#000000" points="1053.4192,-618.9388 1053.4192,-640.9388 1180.4192,-640.9388 1180.4192,-618.9388 1053.4192,-618.9388"/>
<text text-anchor="start" x="1071.3812" y="-626.9388" font-family="Times,serif" font-size="10.00" fill="#000000">LearningPathResource</text>
<polygon fill="none" stroke="#000000" points="1053.4192,-596.9388 1053.4192,-618.9388 1180.4192,-618.9388 1180.4192,-596.9388 1053.4192,-596.9388"/>
<text text-anchor="start" x="1058.4192" y="-604.9388" font-family="Times,serif" font-size="10.00" fill="#000000">id: UUID</text>
<polygon fill="none" stroke="#000000" points="1053.4192,-574.9388 1053.4192,-596.9388 1180.4192,-596.9388 1180.4192,-574.9388 1053.4192,-574.9388"/>
<text text-anchor="start" x="1058.4192" y="-582.9388" font-family="Times,serif" font-size="10.00" fill="#000000">learningPathId: UUID</text>
<polygon fill="none" stroke="#000000" points="1053.4192,-552.9388 1053.4192,-574.9388 1180.4192,-574.9388 1180.4192,-552.9388 1053.4192,-552.9388"/>
<text text-anchor="start" x="1058.4192" y="-560.9388" font-family="Times,serif" font-size="10.00" fill="#000000">url: STRING</text>
<polygon fill="none" stroke="#000000" points="1053.4192,-530.9388 1053.4192,-552.9388 1180.4192,-552.9388 1180.4192,-530.9388 1053.4192,-530.9388"/>
<text text-anchor="start" x="1058.4192" y="-538.9388" font-family="Times,serif" font-size="10.00" fill="#000000">topic: STRING</text>
<polygon fill="none" stroke="#000000" points="1053.4192,-508.9388 1053.4192,-530.9388 1180.4192,-530.9388 1180.4192,-508.9388 1053.4192,-508.9388"/>
<text text-anchor="start" x="1058.4192" y="-516.9388" font-family="Times,serif" font-size="10.00" fill="#000000">description: TEXT</text>
<polygon fill="none" stroke="#000000" points="1053.4192,-486.9388 1053.4192,-508.9388 1180.4192,-508.9388 1180.4192,-486.9388 1053.4192,-486.9388"/>
<text text-anchor="start" x="1058.4192" y="-494.9388" font-family="Times,serif" font-size="10.00" fill="#000000">type: STRING</text>
<polygon fill="none" stroke="#000000" points="1053.4192,-464.9388 1053.4192,-486.9388 1180.4192,-486.9388 1180.4192,-464.9388 1053.4192,-464.9388"/>
<text text-anchor="start" x="1058.1872" y="-472.9388" font-family="Times,serif" font-size="10.00" fill="#000000">sequenceNumber: NUMBER</text>
<polygon fill="none" stroke="#000000" points="1053.4192,-442.9388 1053.4192,-464.9388 1180.4192,-464.9388 1180.4192,-442.9388 1053.4192,-442.9388"/>
<text text-anchor="start" x="1058.4192" y="-450.9388" font-family="Times,serif" font-size="10.00" fill="#000000">createdAt: DATE</text>
<polygon fill="none" stroke="#000000" points="1053.4192,-420.9388 1053.4192,-442.9388 1180.4192,-442.9388 1180.4192,-420.9388 1053.4192,-420.9388"/>
<text text-anchor="start" x="1058.4192" y="-428.9388" font-family="Times,serif" font-size="10.00" fill="#000000">updatedAt: DATE</text>
<polygon fill="none" stroke="#000000" points="1053.4192,-398.9388 1053.4192,-420.9388 1180.4192,-420.9388 1180.4192,-398.9388 1053.4192,-398.9388"/>
<text text-anchor="start" x="1058.4192" y="-406.9388" font-family="Times,serif" font-size="10.00" fill="#000000">LearningPathId: UUID</text>
</g>
<!-- LearningPathResource&#45;&gt;LearningPath -->
<g id="edge12" class="edge">
<title>LearningPathResource&#45;&gt;LearningPath</title>
<path fill="none" stroke="#000000" stroke-width=".75" d="M1046.4376,-519.9388C1022.8988,-519.9388 997.0779,-519.9388 975.1961,-519.9388"/>
<polygon fill="#000000" stroke="#000000" stroke-width=".75" points="1046.6889,-519.9389 1052.6889,-522.6388 1049.6889,-519.9389 1052.6889,-519.9388 1052.6889,-519.9388 1052.6889,-519.9388 1049.6889,-519.9389 1052.6888,-517.2388 1046.6889,-519.9389 1046.6889,-519.9389"/>
</g>
<!-- Tag -->
<g id="node9" class="node">
<title>Tag</title>
<polygon fill="#add8e6" stroke="transparent" points="207.7614,-942.4527 207.7614,-964.4527 290.7614,-964.4527 290.7614,-942.4527 207.7614,-942.4527"/>
<polygon fill="none" stroke="#000000" points="207.7614,-942.4527 207.7614,-964.4527 290.7614,-964.4527 290.7614,-942.4527 207.7614,-942.4527"/>
<text text-anchor="start" x="241.4874" y="-950.4527" font-family="Times,serif" font-size="10.00" fill="#000000">Tag</text>
<polygon fill="none" stroke="#000000" points="207.7614,-920.4527 207.7614,-942.4527 290.7614,-942.4527 290.7614,-920.4527 207.7614,-920.4527"/>
<text text-anchor="start" x="212.7614" y="-928.4527" font-family="Times,serif" font-size="10.00" fill="#000000">id: UUID</text>
<polygon fill="none" stroke="#000000" points="207.7614,-898.4527 207.7614,-920.4527 290.7614,-920.4527 290.7614,-898.4527 207.7614,-898.4527"/>
<text text-anchor="start" x="212.7614" y="-906.4527" font-family="Times,serif" font-size="10.00" fill="#000000">name: STRING</text>
<polygon fill="none" stroke="#000000" points="207.7614,-876.4527 207.7614,-898.4527 290.7614,-898.4527 290.7614,-876.4527 207.7614,-876.4527"/>
<text text-anchor="start" x="212.7614" y="-884.4527" font-family="Times,serif" font-size="10.00" fill="#000000">createdAt: DATE</text>
<polygon fill="none" stroke="#000000" points="207.7614,-854.4527 207.7614,-876.4527 290.7614,-876.4527 290.7614,-854.4527 207.7614,-854.4527"/>
<text text-anchor="start" x="212.4664" y="-862.4527" font-family="Times,serif" font-size="10.00" fill="#000000">updatedAt: DATE</text>
</g>
<!-- Tag&#45;&gt;LearningBucketTag -->
<g id="edge4" class="edge">
<title>Tag&#45;&gt;LearningBucketTag</title>
<path fill="none" stroke="#000000" stroke-width=".75" d="M290.5724,-916.8251C342.5225,-925.9853 431.5615,-941.6853 491.0326,-952.1716"/>
<polygon fill="#000000" stroke="#000000" stroke-width=".75" points="491.1437,-952.1912 496.5837,-955.8921 494.0981,-952.7121 497.0526,-953.2331 497.0526,-953.2331 497.0526,-953.2331 494.0981,-952.7121 497.5215,-950.5741 491.1437,-952.1912 491.1437,-952.1912"/>
</g>
<!-- Tag&#45;&gt;LearningPathTag -->
<g id="edge3" class="edge">
<title>Tag&#45;&gt;LearningPathTag</title>
<path fill="none" stroke="#000000" stroke-width=".75" d="M207.0629,-859.7584C177.2256,-824.1996 136.8044,-776.0276 104.5756,-737.6188"/>
<polygon fill="#000000" stroke="#000000" stroke-width=".75" points="104.5439,-737.581 102.7555,-731.2492 102.6155,-735.2828 100.6871,-732.9847 100.6871,-732.9847 100.6871,-732.9847 102.6155,-735.2828 98.6188,-734.7202 104.5439,-737.581 104.5439,-737.581"/>
</g>
<!-- Upvotes -->
<g id="node10" class="node">
<title>Upvotes</title>
<polygon fill="#add8e6" stroke="transparent" points="502.7494,-132 502.7494,-154 601.7494,-154 601.7494,-132 502.7494,-132"/>
<polygon fill="none" stroke="#000000" points="502.7494,-132 502.7494,-154 601.7494,-154 601.7494,-132 502.7494,-132"/>
<text text-anchor="start" x="535.5864" y="-140" font-family="Times,serif" font-size="10.00" fill="#000000">Upvotes</text>
<polygon fill="none" stroke="#000000" points="502.7494,-110 502.7494,-132 601.7494,-132 601.7494,-110 502.7494,-110"/>
<text text-anchor="start" x="507.7494" y="-118" font-family="Times,serif" font-size="10.00" fill="#000000">id: UUID</text>
<polygon fill="none" stroke="#000000" points="502.7494,-88 502.7494,-110 601.7494,-110 601.7494,-88 502.7494,-88"/>
<text text-anchor="start" x="507.7494" y="-96" font-family="Times,serif" font-size="10.00" fill="#000000">userId: UUID</text>
<polygon fill="none" stroke="#000000" points="502.7494,-66 502.7494,-88 601.7494,-88 601.7494,-66 502.7494,-66"/>
<text text-anchor="start" x="507.6814" y="-74" font-family="Times,serif" font-size="10.00" fill="#000000">learningPathId: UUID</text>
<polygon fill="none" stroke="#000000" points="502.7494,-44 502.7494,-66 601.7494,-66 601.7494,-44 502.7494,-44"/>
<text text-anchor="start" x="507.7494" y="-52" font-family="Times,serif" font-size="10.00" fill="#000000">createdAt: DATE</text>
<polygon fill="none" stroke="#000000" points="502.7494,-22 502.7494,-44 601.7494,-44 601.7494,-22 502.7494,-22"/>
<text text-anchor="start" x="507.7494" y="-30" font-family="Times,serif" font-size="10.00" fill="#000000">updatedAt: DATE</text>
<polygon fill="none" stroke="#000000" points="502.7494,0 502.7494,-22 601.7494,-22 601.7494,0 502.7494,0"/>
<text text-anchor="start" x="507.7494" y="-8" font-family="Times,serif" font-size="10.00" fill="#000000">UserId: UUID</text>
</g>
<!-- Upvotes&#45;&gt;LearningPath -->
<g id="edge13" class="edge">
<title>Upvotes&#45;&gt;LearningPath</title>
<path fill="none" stroke="#000000" stroke-width=".75" d="M605.4731,-141.0255C676.7516,-225.9719 801.727,-374.9117 871.8854,-458.5233"/>
<polygon fill="#000000" stroke="#000000" stroke-width=".75" points="605.3455,-140.8734 603.5571,-134.5416 603.4171,-138.5752 601.4888,-136.2771 601.4888,-136.2771 601.4888,-136.2771 603.4171,-138.5752 599.4204,-138.0126 605.3455,-140.8734 605.3455,-140.8734"/>
</g>
<!-- Upvotes&#45;&gt;User -->
<g id="edge14" class="edge">
<title>Upvotes&#45;&gt;User</title>
<path fill="none" stroke="#000000" stroke-width=".75" d="M495.84,-86.8583C440.9557,-96.5359 357.7743,-111.203 303.3496,-120.7996"/>
<polygon fill="#000000" stroke="#000000" stroke-width=".75" points="496.1475,-86.8042 502.5252,-88.4212 499.1019,-86.2832 502.0563,-85.7622 502.0563,-85.7622 502.0563,-85.7622 499.1019,-86.2832 501.5875,-83.1032 496.1475,-86.8042 496.1475,-86.8042"/>
</g>
<!-- UserSession -->
<g id="node12" class="node">
<title>UserSession</title>
<polygon fill="#add8e6" stroke="transparent" points="1031.6473,-173.9388 1031.6473,-195.9388 1111.6473,-195.9388 1111.6473,-173.9388 1031.6473,-173.9388"/>
<polygon fill="none" stroke="#000000" points="1031.6473,-173.9388 1031.6473,-195.9388 1111.6473,-195.9388 1111.6473,-173.9388 1031.6473,-173.9388"/>
<text text-anchor="start" x="1046.9318" y="-181.9388" font-family="Times,serif" font-size="10.00" fill="#000000">UserSession</text>
<polygon fill="none" stroke="#000000" points="1031.6473,-151.9388 1031.6473,-173.9388 1111.6473,-173.9388 1111.6473,-151.9388 1031.6473,-151.9388"/>
<text text-anchor="start" x="1036.6473" y="-159.9388" font-family="Times,serif" font-size="10.00" fill="#000000">id: UUID</text>
<polygon fill="none" stroke="#000000" points="1031.6473,-129.9388 1031.6473,-151.9388 1111.6473,-151.9388 1111.6473,-129.9388 1031.6473,-129.9388"/>
<text text-anchor="start" x="1036.6473" y="-137.9388" font-family="Times,serif" font-size="10.00" fill="#000000">userId: UUID</text>
<polygon fill="none" stroke="#000000" points="1031.6473,-107.9388 1031.6473,-129.9388 1111.6473,-129.9388 1111.6473,-107.9388 1031.6473,-107.9388"/>
<text text-anchor="start" x="1036.2433" y="-115.9388" font-family="Times,serif" font-size="10.00" fill="#000000">expiresAt: DATE</text>
<polygon fill="none" stroke="#000000" points="1031.6473,-85.9388 1031.6473,-107.9388 1111.6473,-107.9388 1111.6473,-85.9388 1031.6473,-85.9388"/>
<text text-anchor="start" x="1036.2488" y="-93.9388" font-family="Times,serif" font-size="10.00" fill="#000000">createdAt: DATE</text>
</g>
</g>
</svg>
