<?xml version="1.0" encoding="UTF-8" standalone="no"?>
<!DOCTYPE svg PUBLIC "-//W3C//DTD SVG 1.1//EN"
 "http://www.w3.org/Graphics/SVG/1.1/DTD/svg11.dtd">
<!-- Generated by graphviz version 2.40.1 (20161225.0304)
 -->
<!-- Title: models_diagram Pages: 1 -->
<svg width="1252pt" height="1112pt"
 viewBox="0.00 0.00 1251.92 1111.88" xmlns="http://www.w3.org/2000/svg" xmlns:xlink="http://www.w3.org/1999/xlink">
<g id="graph0" class="graph" transform="scale(1 1) rotate(0) translate(36 1075.8776)">
<title>models_diagram</title>
<polygon fill="#ffffff" stroke="transparent" points="-36,36 -36,-1075.8776 1215.9192,-1075.8776 1215.9192,36 -36,36"/>
<!-- Downvotes -->
<g id="node1" class="node">
<title>Downvotes</title>
<polygon fill="#add8e6" stroke="transparent" points="767.1925,-307.831 767.1925,-329.831 869.1925,-329.831 869.1925,-307.831 767.1925,-307.831"/>
<polygon fill="none" stroke="#000000" points="767.1925,-307.831 767.1925,-329.831 869.1925,-329.831 869.1925,-307.831 767.1925,-307.831"/>
<text text-anchor="start" x="795.42" y="-315.831" font-family="Times,serif" font-size="10.00" fill="#000000">Downvotes</text>
<polygon fill="none" stroke="#000000" points="767.1925,-285.831 767.1925,-307.831 869.1925,-307.831 869.1925,-285.831 767.1925,-285.831"/>
<text text-anchor="start" x="772.1925" y="-293.831" font-family="Times,serif" font-size="10.00" fill="#000000">id: UUID</text>
<polygon fill="none" stroke="#000000" points="767.1925,-263.831 767.1925,-285.831 869.1925,-285.831 869.1925,-263.831 767.1925,-263.831"/>
<text text-anchor="start" x="772.1925" y="-271.831" font-family="Times,serif" font-size="10.00" fill="#000000">userId: UUID</text>
<polygon fill="none" stroke="#000000" points="767.1925,-241.831 767.1925,-263.831 869.1925,-263.831 869.1925,-241.831 767.1925,-241.831"/>
<text text-anchor="start" x="772.1925" y="-249.831" font-family="Times,serif" font-size="10.00" fill="#000000">learningPathId: UUID</text>
<polygon fill="none" stroke="#000000" points="767.1925,-219.831 767.1925,-241.831 869.1925,-241.831 869.1925,-219.831 767.1925,-219.831"/>
<text text-anchor="start" x="772.1925" y="-227.831" font-family="Times,serif" font-size="10.00" fill="#000000">createdAt: DATE</text>
<polygon fill="none" stroke="#000000" points="767.1925,-197.831 767.1925,-219.831 869.1925,-219.831 869.1925,-197.831 767.1925,-197.831"/>
<text text-anchor="start" x="772.1925" y="-205.831" font-family="Times,serif" font-size="10.00" fill="#000000">updatedAt: DATE</text>
<polygon fill="none" stroke="#000000" points="767.1925,-175.831 767.1925,-197.831 869.1925,-197.831 869.1925,-175.831 767.1925,-175.831"/>
<text text-anchor="start" x="771.9595" y="-183.831" font-family="Times,serif" font-size="10.00" fill="#000000">LearningPathId: UUID</text>
<polygon fill="none" stroke="#000000" points="767.1925,-153.831 767.1925,-175.831 869.1925,-175.831 869.1925,-153.831 767.1925,-153.831"/>
<text text-anchor="start" x="772.1925" y="-161.831" font-family="Times,serif" font-size="10.00" fill="#000000">UserId: UUID</text>
</g>
<!-- LearningPath -->
<g id="node6" class="node">
<title>LearningPath</title>
<polygon fill="#add8e6" stroke="transparent" points="872.4192,-629.9388 872.4192,-651.9388 975.4192,-651.9388 975.4192,-629.9388 872.4192,-629.9388"/>
<polygon fill="none" stroke="#000000" points="872.4192,-629.9388 872.4192,-651.9388 975.4192,-651.9388 975.4192,-629.9388 872.4192,-629.9388"/>
<text text-anchor="start" x="896.9832" y="-637.9388" font-family="Times,serif" font-size="10.00" fill="#000000">LearningPath</text>
<polygon fill="none" stroke="#000000" points="872.4192,-607.9388 872.4192,-629.9388 975.4192,-629.9388 975.4192,-607.9388 872.4192,-607.9388"/>
<text text-anchor="start" x="877.4192" y="-615.9388" font-family="Times,serif" font-size="10.00" fill="#000000">id: UUID</text>
<polygon fill="none" stroke="#000000" points="872.4192,-585.9388 872.4192,-607.9388 975.4192,-607.9388 975.4192,-585.9388 872.4192,-585.9388"/>
<text text-anchor="start" x="877.4192" y="-593.9388" font-family="Times,serif" font-size="10.00" fill="#000000">name: STRING</text>
<polygon fill="none" stroke="#000000" points="872.4192,-563.9388 872.4192,-585.9388 975.4192,-585.9388 975.4192,-563.9388 872.4192,-563.9388"/>
<text text-anchor="start" x="877.4192" y="-571.9388" font-family="Times,serif" font-size="10.00" fill="#000000">description: TEXT</text>
<polygon fill="none" stroke="#000000" points="872.4192,-541.9388 872.4192,-563.9388 975.4192,-563.9388 975.4192,-541.9388 872.4192,-541.9388"/>
<text text-anchor="start" x="877.4192" y="-549.9388" font-family="Times,serif" font-size="10.00" fill="#000000">difficulty: STRING</text>
<polygon fill="none" stroke="#000000" points="872.4192,-519.9388 872.4192,-541.9388 975.4192,-541.9388 975.4192,-519.9388 872.4192,-519.9388"/>
<text text-anchor="start" x="877.4192" y="-527.9388" font-family="Times,serif" font-size="10.00" fill="#000000">upVotes: NUMBER</text>
<polygon fill="none" stroke="#000000" points="872.4192,-497.9388 872.4192,-519.9388 975.4192,-519.9388 975.4192,-497.9388 872.4192,-497.9388"/>
<text text-anchor="start" x="877.1202" y="-505.9388" font-family="Times,serif" font-size="10.00" fill="#000000">downVotes: NUMBER</text>
<polygon fill="none" stroke="#000000" points="872.4192,-475.9388 872.4192,-497.9388 975.4192,-497.9388 975.4192,-475.9388 872.4192,-475.9388"/>
<text text-anchor="start" x="877.4192" y="-483.9388" font-family="Times,serif" font-size="10.00" fill="#000000">userId: UUID</text>
<polygon fill="none" stroke="#000000" points="872.4192,-453.9388 872.4192,-475.9388 975.4192,-475.9388 975.4192,-453.9388 872.4192,-453.9388"/>
<text text-anchor="start" x="877.4192" y="-461.9388" font-family="Times,serif" font-size="10.00" fill="#000000">createdAt: DATE</text>
<polygon fill="none" stroke="#000000" points="872.4192,-431.9388 872.4192,-453.9388 975.4192,-453.9388 975.4192,-431.9388 872.4192,-431.9388"/>
<text text-anchor="start" x="877.4192" y="-439.9388" font-family="Times,serif" font-size="10.00" fill="#000000">updatedAt: DATE</text>
<polygon fill="none" stroke="#000000" points="872.4192,-409.9388 872.4192,-431.9388 975.4192,-431.9388 975.4192,-409.9388 872.4192,-409.9388"/>
<text text-anchor="start" x="877.4192" y="-417.9388" font-family="Times,serif" font-size="10.00" fill="#000000">UserId: UUID</text>
</g>
<!-- Downvotes&#45;&gt;LearningPath -->
<g id="edge5" class="edge">
<title>Downvotes&#45;&gt;LearningPath</title>
<path fill="none" stroke="#000000" stroke-width=".75" d="M852.3902,-335.7883C860.9949,-359.4294 870.3516,-385.1368 879.364,-409.8984"/>
<polygon fill="#000000" stroke="#000000" stroke-width=".75" points="852.388,-335.782 852.8729,-329.2203 851.3619,-332.9629 850.3358,-330.1438 850.3358,-330.1438 850.3358,-330.1438 851.3619,-332.9629 847.7986,-331.0673 852.388,-335.782 852.388,-335.782"/>
</g>
<!-- User -->
<g id="node11" class="node">
<title>User</title>
<polygon fill="#add8e6" stroke="transparent" points="194.7614,-240.425 194.7614,-262.425 303.7614,-262.425 303.7614,-240.425 194.7614,-240.425"/>
<polygon fill="none" stroke="#000000" points="194.7614,-240.425 194.7614,-262.425 303.7614,-262.425 303.7614,-240.425 194.7614,-240.425"/>
<text text-anchor="start" x="239.8234" y="-248.425" font-family="Times,serif" font-size="10.00" fill="#000000">User</text>
<polygon fill="none" stroke="#000000" points="194.7614,-218.425 194.7614,-240.425 303.7614,-240.425 303.7614,-218.425 194.7614,-218.425"/>
<text text-anchor="start" x="199.7614" y="-226.425" font-family="Times,serif" font-size="10.00" fill="#000000">id: UUID</text>
<polygon fill="none" stroke="#000000" points="194.7614,-196.425 194.7614,-218.425 303.7614,-218.425 303.7614,-196.425 194.7614,-196.425"/>
<text text-anchor="start" x="199.7614" y="-204.425" font-family="Times,serif" font-size="10.00" fill="#000000">email: STRING</text>
<polygon fill="none" stroke="#000000" points="194.7614,-174.425 194.7614,-196.425 303.7614,-196.425 303.7614,-174.425 194.7614,-174.425"/>
<text text-anchor="start" x="199.7614" y="-182.425" font-family="Times,serif" font-size="10.00" fill="#000000">firstName: STRING</text>
<polygon fill="none" stroke="#000000" points="194.7614,-152.425 194.7614,-174.425 303.7614,-174.425 303.7614,-152.425 194.7614,-152.425"/>
<text text-anchor="start" x="199.7614" y="-160.425" font-family="Times,serif" font-size="10.00" fill="#000000">lastName: STRING</text>
<polygon fill="none" stroke="#000000" points="194.7614,-130.425 194.7614,-152.425 303.7614,-152.425 303.7614,-130.425 194.7614,-130.425"/>
<text text-anchor="start" x="199.7614" y="-138.425" font-family="Times,serif" font-size="10.00" fill="#000000">profilePicture: STRING</text>
<polygon fill="none" stroke="#000000" points="194.7614,-108.425 194.7614,-130.425 303.7614,-130.425 303.7614,-108.425 194.7614,-108.425"/>
<text text-anchor="start" x="199.7614" y="-116.425" font-family="Times,serif" font-size="10.00" fill="#000000">googleId: STRING</text>
<polygon fill="none" stroke="#000000" points="194.7614,-86.425 194.7614,-108.425 303.7614,-108.425 303.7614,-86.425 194.7614,-86.425"/>
<text text-anchor="start" x="199.7614" y="-94.425" font-family="Times,serif" font-size="10.00" fill="#000000">facebookId: STRING</text>
<polygon fill="none" stroke="#000000" points="194.7614,-64.425 194.7614,-86.425 303.7614,-86.425 303.7614,-64.425 194.7614,-64.425"/>
<text text-anchor="start" x="199.4139" y="-72.425" font-family="Times,serif" font-size="10.00" fill="#000000">passwordHash: STRING</text>
<polygon fill="none" stroke="#000000" points="194.7614,-42.425 194.7614,-64.425 303.7614,-64.425 303.7614,-42.425 194.7614,-42.425"/>
<text text-anchor="start" x="199.7614" y="-50.425" font-family="Times,serif" font-size="10.00" fill="#000000">createdAt: DATE</text>
<polygon fill="none" stroke="#000000" points="194.7614,-20.425 194.7614,-42.425 303.7614,-42.425 303.7614,-20.425 194.7614,-20.425"/>
<text text-anchor="start" x="199.7614" y="-28.425" font-family="Times,serif" font-size="10.00" fill="#000000">updatedAt: DATE</text>
</g>
<!-- Downvotes&#45;&gt;User -->
<g id="edge6" class="edge">
<title>Downvotes&#45;&gt;User</title>
<path fill="none" stroke="#000000" stroke-width=".75" d="M761.0667,-231.7582C651.1835,-212.3828 411.7094,-170.1571 303.6289,-151.0996"/>
<polygon fill="#000000" stroke="#000000" stroke-width=".75" points="761.2494,-231.7903 766.6893,-235.4913 764.2038,-232.3113 767.1582,-232.8323 767.1582,-232.8323 767.1582,-232.8323 764.2038,-232.3113 767.6271,-230.1733 761.2494,-231.7903 761.2494,-231.7903"/>
</g>
<!-- Favorites -->
<g id="node2" class="node">
<title>Favorites</title>
<polygon fill="#add8e6" stroke="transparent" points="0,-443.1078 0,-465.1078 102,-465.1078 102,-443.1078 0,-443.1078"/>
<polygon fill="none" stroke="#000000" points="0,-443.1078 0,-465.1078 102,-465.1078 102,-443.1078 0,-443.1078"/>
<text text-anchor="start" x="32.3935" y="-451.1078" font-family="Times,serif" font-size="10.00" fill="#000000">Favorites</text>
<polygon fill="none" stroke="#000000" points="0,-421.1078 0,-443.1078 102,-443.1078 102,-421.1078 0,-421.1078"/>
<text text-anchor="start" x="5" y="-429.1078" font-family="Times,serif" font-size="10.00" fill="#000000">id: UUID</text>
<polygon fill="none" stroke="#000000" points="0,-399.1078 0,-421.1078 102,-421.1078 102,-399.1078 0,-399.1078"/>
<text text-anchor="start" x="5" y="-407.1078" font-family="Times,serif" font-size="10.00" fill="#000000">userId: UUID</text>
<polygon fill="none" stroke="#000000" points="0,-377.1078 0,-399.1078 102,-399.1078 102,-377.1078 0,-377.1078"/>
<text text-anchor="start" x="5" y="-385.1078" font-family="Times,serif" font-size="10.00" fill="#000000">learningPathId: UUID</text>
<polygon fill="none" stroke="#000000" points="0,-355.1078 0,-377.1078 102,-377.1078 102,-355.1078 0,-355.1078"/>
<text text-anchor="start" x="5" y="-363.1078" font-family="Times,serif" font-size="10.00" fill="#000000">createdAt: DATE</text>
<polygon fill="none" stroke="#000000" points="0,-333.1078 0,-355.1078 102,-355.1078 102,-333.1078 0,-333.1078"/>
<text text-anchor="start" x="5" y="-341.1078" font-family="Times,serif" font-size="10.00" fill="#000000">updatedAt: DATE</text>
<polygon fill="none" stroke="#000000" points="0,-311.1078 0,-333.1078 102,-333.1078 102,-311.1078 0,-311.1078"/>
<text text-anchor="start" x="4.767" y="-319.1078" font-family="Times,serif" font-size="10.00" fill="#000000">LearningPathId: UUID</text>
<polygon fill="none" stroke="#000000" points="0,-289.1078 0,-311.1078 102,-311.1078 102,-289.1078 0,-289.1078"/>
<text text-anchor="start" x="5" y="-297.1078" font-family="Times,serif" font-size="10.00" fill="#000000">UserId: UUID</text>
</g>
<!-- Favorites&#45;&gt;LearningPath -->
<g id="edge7" class="edge">
<title>Favorites&#45;&gt;LearningPath</title>
<path fill="none" stroke="#000000" stroke-width=".75" d="M108.351,-387.2203C268.5424,-415.4664 718.9912,-494.8926 871.893,-521.8534"/>
<polygon fill="#000000" stroke="#000000" stroke-width=".75" points="108.2256,-387.1983 102.7856,-383.4973 105.2712,-386.6773 102.3167,-386.1563 102.3167,-386.1563 102.3167,-386.1563 105.2712,-386.6773 101.8478,-388.8153 108.2256,-387.1983 108.2256,-387.1983"/>
</g>
<!-- Favorites&#45;&gt;User -->
<g id="edge8" class="edge">
<title>Favorites&#45;&gt;User</title>
<path fill="none" stroke="#000000" stroke-width=".75" d="M106.1881,-311.3372C133.6008,-278.668 166.6214,-239.3156 193.9785,-206.7127"/>
<polygon fill="#000000" stroke="#000000" stroke-width=".75" points="106.0424,-311.5108 100.1173,-314.3716 104.114,-313.809 102.1857,-316.1071 102.1857,-316.1071 102.1857,-316.1071 104.114,-313.809 104.254,-317.8426 106.0424,-311.5108 106.0424,-311.5108"/>
</g>
<!-- LearningBucket -->
<g id="node3" class="node">
<title>LearningBucket</title>
<polygon fill="#add8e6" stroke="transparent" points="776.1925,-886.0466 776.1925,-908.0466 861.1925,-908.0466 861.1925,-886.0466 776.1925,-886.0466"/>
<polygon fill="none" stroke="#000000" points="776.1925,-886.0466 776.1925,-908.0466 861.1925,-908.0466 861.1925,-886.0466 776.1925,-886.0466"/>
<text text-anchor="start" x="786.482" y="-894.0466" font-family="Times,serif" font-size="10.00" fill="#000000">LearningBucket</text>
<polygon fill="none" stroke="#000000" points="776.1925,-864.0466 776.1925,-886.0466 861.1925,-886.0466 861.1925,-864.0466 776.1925,-864.0466"/>
<text text-anchor="start" x="781.1925" y="-872.0466" font-family="Times,serif" font-size="10.00" fill="#000000">id: UUID</text>
<polygon fill="none" stroke="#000000" points="776.1925,-842.0466 776.1925,-864.0466 861.1925,-864.0466 861.1925,-842.0466 776.1925,-842.0466"/>
<text text-anchor="start" x="781.1925" y="-850.0466" font-family="Times,serif" font-size="10.00" fill="#000000">name: STRING</text>
<polygon fill="none" stroke="#000000" points="776.1925,-820.0466 776.1925,-842.0466 861.1925,-842.0466 861.1925,-820.0466 776.1925,-820.0466"/>
<text text-anchor="start" x="781.0635" y="-828.0466" font-family="Times,serif" font-size="10.00" fill="#000000">description: TEXT</text>
<polygon fill="none" stroke="#000000" points="776.1925,-798.0466 776.1925,-820.0466 861.1925,-820.0466 861.1925,-798.0466 776.1925,-798.0466"/>
<text text-anchor="start" x="781.1925" y="-806.0466" font-family="Times,serif" font-size="10.00" fill="#000000">userId: UUID</text>
<polygon fill="none" stroke="#000000" points="776.1925,-776.0466 776.1925,-798.0466 861.1925,-798.0466 861.1925,-776.0466 776.1925,-776.0466"/>
<text text-anchor="start" x="781.1925" y="-784.0466" font-family="Times,serif" font-size="10.00" fill="#000000">createdAt: DATE</text>
<polygon fill="none" stroke="#000000" points="776.1925,-754.0466 776.1925,-776.0466 861.1925,-776.0466 861.1925,-754.0466 776.1925,-754.0466"/>
<text text-anchor="start" x="781.1925" y="-762.0466" font-family="Times,serif" font-size="10.00" fill="#000000">updatedAt: DATE</text>
<polygon fill="none" stroke="#000000" points="776.1925,-732.0466 776.1925,-754.0466 861.1925,-754.0466 861.1925,-732.0466 776.1925,-732.0466"/>
<text text-anchor="start" x="781.1925" y="-740.0466" font-family="Times,serif" font-size="10.00" fill="#000000">UserId: UUID</text>
</g>
<!-- LearningBucketTag -->
<g id="node5" class="node">
<title>LearningBucketTag</title>
<polygon fill="#add8e6" stroke="transparent" points="497.7494,-1017.8776 497.7494,-1039.8776 606.7494,-1039.8776 606.7494,-1017.8776 497.7494,-1017.8776"/>
<polygon fill="none" stroke="#000000" points="497.7494,-1017.8776 497.7494,-1039.8776 606.7494,-1039.8776 606.7494,-1017.8776 497.7494,-1017.8776"/>
<text text-anchor="start" x="512.2649" y="-1025.8776" font-family="Times,serif" font-size="10.00" fill="#000000">LearningBucketTag</text>
<polygon fill="none" stroke="#000000" points="497.7494,-995.8776 497.7494,-1017.8776 606.7494,-1017.8776 606.7494,-995.8776 497.7494,-995.8776"/>
<text text-anchor="start" x="502.7494" y="-1003.8776" font-family="Times,serif" font-size="10.00" fill="#000000">id: UUID</text>
<polygon fill="none" stroke="#000000" points="497.7494,-973.8776 497.7494,-995.8776 606.7494,-995.8776 606.7494,-973.8776 497.7494,-973.8776"/>
<text text-anchor="start" x="502.4069" y="-981.8776" font-family="Times,serif" font-size="10.00" fill="#000000">learningBucketId: UUID</text>
<polygon fill="none" stroke="#000000" points="497.7494,-951.8776 497.7494,-973.8776 606.7494,-973.8776 606.7494,-951.8776 497.7494,-951.8776"/>
<text text-anchor="start" x="502.7494" y="-959.8776" font-family="Times,serif" font-size="10.00" fill="#000000">tagId: UUID</text>
<polygon fill="none" stroke="#000000" points="497.7494,-929.8776 497.7494,-951.8776 606.7494,-951.8776 606.7494,-929.8776 497.7494,-929.8776"/>
<text text-anchor="start" x="502.7494" y="-937.8776" font-family="Times,serif" font-size="10.00" fill="#000000">createdAt: DATE</text>
<polygon fill="none" stroke="#000000" points="497.7494,-907.8776 497.7494,-929.8776 606.7494,-929.8776 606.7494,-907.8776 497.7494,-907.8776"/>
<text text-anchor="start" x="502.7494" y="-915.8776" font-family="Times,serif" font-size="10.00" fill="#000000">updatedAt: DATE</text>
</g>
<!-- LearningBucket&#45;&gt;LearningBucketTag -->
<g id="edge1" class="edge">
<title>LearningBucket&#45;&gt;LearningBucketTag</title>
<path fill="none" stroke="#000000" stroke-width=".75" d="M775.6792,-844.5917C731.451,-870.1268 661.8213,-910.3276 611.9488,-939.1215"/>
<polygon fill="#000000" stroke="#000000" stroke-width=".75" points="611.7742,-939.2223 605.228,-939.884 609.1761,-940.7223 606.578,-942.2223 606.578,-942.2223 606.578,-942.2223 609.1761,-940.7223 607.9281,-944.5606 611.7742,-939.2223 611.7742,-939.2223"/>
</g>
<!-- LearningBucket&#45;&gt;User -->
<g id="edge9" class="edge">
<title>LearningBucket&#45;&gt;User</title>
<path fill="none" stroke="#000000" stroke-width=".75" d="M771.6739,-764.6079C667.3178,-640.2411 414.9754,-339.5112 303.391,-206.53"/>
<polygon fill="#000000" stroke="#000000" stroke-width=".75" points="771.7688,-764.7209 773.5572,-771.0528 773.6972,-767.0191 775.6255,-769.3172 775.6255,-769.3172 775.6255,-769.3172 773.6972,-767.0191 777.6939,-767.5817 771.7688,-764.7209 771.7688,-764.7209"/>
</g>
<!-- LearningBucketResource -->
<g id="node4" class="node">
<title>LearningBucketResource</title>
<polygon fill="#add8e6" stroke="transparent" points="893.1861,-1006.9633 893.1861,-1028.9633 1006.1861,-1028.9633 1006.1861,-1006.9633 893.1861,-1006.9633"/>
<polygon fill="none" stroke="#000000" points="893.1861,-1006.9633 893.1861,-1028.9633 1006.1861,-1028.9633 1006.1861,-1006.9633 893.1861,-1006.9633"/>
<text text-anchor="start" x="898.8736" y="-1014.9633" font-family="Times,serif" font-size="10.00" fill="#000000">LearningBucketResource</text>
<polygon fill="none" stroke="#000000" points="893.1861,-984.9633 893.1861,-1006.9633 1006.1861,-1006.9633 1006.1861,-984.9633 893.1861,-984.9633"/>
<text text-anchor="start" x="898.1861" y="-992.9633" font-family="Times,serif" font-size="10.00" fill="#000000">id: UUID</text>
<polygon fill="none" stroke="#000000" points="893.1861,-962.9633 893.1861,-984.9633 1006.1861,-984.9633 1006.1861,-962.9633 893.1861,-962.9633"/>
<text text-anchor="start" x="898.1861" y="-970.9633" font-family="Times,serif" font-size="10.00" fill="#000000">learningBucketId: UUID</text>
<polygon fill="none" stroke="#000000" points="893.1861,-940.9633 893.1861,-962.9633 1006.1861,-962.9633 1006.1861,-940.9633 893.1861,-940.9633"/>
<text text-anchor="start" x="898.1861" y="-948.9633" font-family="Times,serif" font-size="10.00" fill="#000000">url: STRING</text>
<polygon fill="none" stroke="#000000" points="893.1861,-918.9633 893.1861,-940.9633 1006.1861,-940.9633 1006.1861,-918.9633 893.1861,-918.9633"/>
<text text-anchor="start" x="898.1861" y="-926.9633" font-family="Times,serif" font-size="10.00" fill="#000000">topic: STRING</text>
<polygon fill="none" stroke="#000000" points="893.1861,-896.9633 893.1861,-918.9633 1006.1861,-918.9633 1006.1861,-896.9633 893.1861,-896.9633"/>
<text text-anchor="start" x="898.1861" y="-904.9633" font-family="Times,serif" font-size="10.00" fill="#000000">description: TEXT</text>
<polygon fill="none" stroke="#000000" points="893.1861,-874.9633 893.1861,-896.9633 1006.1861,-896.9633 1006.1861,-874.9633 893.1861,-874.9633"/>
<text text-anchor="start" x="898.1861" y="-882.9633" font-family="Times,serif" font-size="10.00" fill="#000000">createdAt: DATE</text>
<polygon fill="none" stroke="#000000" points="893.1861,-852.9633 893.1861,-874.9633 1006.1861,-874.9633 1006.1861,-852.9633 893.1861,-852.9633"/>
<text text-anchor="start" x="898.1861" y="-860.9633" font-family="Times,serif" font-size="10.00" fill="#000000">updatedAt: DATE</text>
<polygon fill="none" stroke="#000000" points="893.1861,-830.9633 893.1861,-852.9633 1006.1861,-852.9633 1006.1861,-830.9633 893.1861,-830.9633"/>
<text text-anchor="start" x="898.1786" y="-838.9633" font-family="Times,serif" font-size="10.00" fill="#000000">LearningBucketId: UUID</text>
</g>
<!-- LearningBucketResource&#45;&gt;LearningBucket -->
<g id="edge10" class="edge">
<title>LearningBucketResource&#45;&gt;LearningBucket</title>
<path fill="none" stroke="#000000" stroke-width=".75" d="M887.7333,-878.3982C878.6072,-870.7405 869.3761,-862.9947 860.7521,-855.7583"/>
<polygon fill="#000000" stroke="#000000" stroke-width=".75" points="887.896,-878.5348 890.7568,-884.4598 890.1942,-880.4631 892.4923,-882.3915 892.4923,-882.3915 892.4923,-882.3915 890.1942,-880.4631 894.2279,-880.3232 887.896,-878.5348 887.896,-878.5348"/>
</g>
<!-- LearningPathTag -->
<g id="node8" class="node">
<title>LearningPathTag</title>
<polygon fill="#add8e6" stroke="transparent" points="2,-728.7699 2,-750.7699 101,-750.7699 101,-728.7699 2,-728.7699"/>
<polygon fill="none" stroke="#000000" points="2,-728.7699 2,-750.7699 101,-750.7699 101,-728.7699 2,-728.7699"/>
<text text-anchor="start" x="16.79" y="-736.7699" font-family="Times,serif" font-size="10.00" fill="#000000">LearningPathTag</text>
<polygon fill="none" stroke="#000000" points="2,-706.7699 2,-728.7699 101,-728.7699 101,-706.7699 2,-706.7699"/>
<text text-anchor="start" x="7" y="-714.7699" font-family="Times,serif" font-size="10.00" fill="#000000">id: UUID</text>
<polygon fill="none" stroke="#000000" points="2,-684.7699 2,-706.7699 101,-706.7699 101,-684.7699 2,-684.7699"/>
<text text-anchor="start" x="6.932" y="-692.7699" font-family="Times,serif" font-size="10.00" fill="#000000">learningPathId: UUID</text>
<polygon fill="none" stroke="#000000" points="2,-662.7699 2,-684.7699 101,-684.7699 101,-662.7699 2,-662.7699"/>
<text text-anchor="start" x="7" y="-670.7699" font-family="Times,serif" font-size="10.00" fill="#000000">tagId: UUID</text>
<polygon fill="none" stroke="#000000" points="2,-640.7699 2,-662.7699 101,-662.7699 101,-640.7699 2,-640.7699"/>
<text text-anchor="start" x="7" y="-648.7699" font-family="Times,serif" font-size="10.00" fill="#000000">createdAt: DATE</text>
<polygon fill="none" stroke="#000000" points="2,-618.7699 2,-640.7699 101,-640.7699 101,-618.7699 2,-618.7699"/>
<text text-anchor="start" x="7" y="-626.7699" font-family="Times,serif" font-size="10.00" fill="#000000">updatedAt: DATE</text>
</g>
<!-- LearningPath&#45;&gt;LearningPathTag -->
<g id="edge2" class="edge">
<title>LearningPath&#45;&gt;LearningPathTag</title>
<path fill="none" stroke="#000000" stroke-width=".75" d="M871.7807,-540.0441C718.1885,-567.1265 265.0723,-647.0231 106.5354,-674.9775"/>
<polygon fill="#000000" stroke="#000000" stroke-width=".75" points="106.476,-674.9879 100.0983,-673.3709 103.5216,-675.5089 100.5671,-676.0298 100.5671,-676.0298 100.5671,-676.0298 103.5216,-675.5089 101.036,-678.6888 106.476,-674.9879 106.476,-674.9879"/>
</g>
<!-- LearningPath&#45;&gt;User -->
<g id="edge11" class="edge">
<title>LearningPath&#45;&gt;User</title>
<path fill="none" stroke="#000000" stroke-width=".75" d="M866.668,-498.1735C738.8288,-424.3655 429.6668,-245.8708 303.6296,-173.1031"/>
<polygon fill="#000000" stroke="#000000" stroke-width=".75" points="866.6824,-498.1818 870.5286,-503.5201 869.2805,-499.6818 871.8786,-501.1819 871.8786,-501.1819 871.8786,-501.1819 869.2805,-499.6818 873.2286,-498.8436 866.6824,-498.1818 866.6824,-498.1818"/>
</g>
<!-- LearningPathResource -->
<g id="node7" class="node">
<title>LearningPathResource</title>
<polygon fill="#add8e6" stroke="transparent" points="1053.4192,-629.9388 1053.4192,-651.9388 1180.4192,-651.9388 1180.4192,-629.9388 1053.4192,-629.9388"/>
<polygon fill="none" stroke="#000000" points="1053.4192,-629.9388 1053.4192,-651.9388 1180.4192,-651.9388 1180.4192,-629.9388 1053.4192,-629.9388"/>
<text text-anchor="start" x="1071.3812" y="-637.9388" font-family="Times,serif" font-size="10.00" fill="#000000">LearningPathResource</text>
<polygon fill="none" stroke="#000000" points="1053.4192,-607.9388 1053.4192,-629.9388 1180.4192,-629.9388 1180.4192,-607.9388 1053.4192,-607.9388"/>
<text text-anchor="start" x="1058.4192" y="-615.9388" font-family="Times,serif" font-size="10.00" fill="#000000">id: UUID</text>
<polygon fill="none" stroke="#000000" points="1053.4192,-585.9388 1053.4192,-607.9388 1180.4192,-607.9388 1180.4192,-585.9388 1053.4192,-585.9388"/>
<text text-anchor="start" x="1058.4192" y="-593.9388" font-family="Times,serif" font-size="10.00" fill="#000000">learningPathId: UUID</text>
<polygon fill="none" stroke="#000000" points="1053.4192,-563.9388 1053.4192,-585.9388 1180.4192,-585.9388 1180.4192,-563.9388 1053.4192,-563.9388"/>
<text text-anchor="start" x="1058.4192" y="-571.9388" font-family="Times,serif" font-size="10.00" fill="#000000">url: STRING</text>
<polygon fill="none" stroke="#000000" points="1053.4192,-541.9388 1053.4192,-563.9388 1180.4192,-563.9388 1180.4192,-541.9388 1053.4192,-541.9388"/>
<text text-anchor="start" x="1058.4192" y="-549.9388" font-family="Times,serif" font-size="10.00" fill="#000000">topic: STRING</text>
<polygon fill="none" stroke="#000000" points="1053.4192,-519.9388 1053.4192,-541.9388 1180.4192,-541.9388 1180.4192,-519.9388 1053.4192,-519.9388"/>
<text text-anchor="start" x="1058.4192" y="-527.9388" font-family="Times,serif" font-size="10.00" fill="#000000">description: TEXT</text>
<polygon fill="none" stroke="#000000" points="1053.4192,-497.9388 1053.4192,-519.9388 1180.4192,-519.9388 1180.4192,-497.9388 1053.4192,-497.9388"/>
<text text-anchor="start" x="1058.4192" y="-505.9388" font-family="Times,serif" font-size="10.00" fill="#000000">type: STRING</text>
<polygon fill="none" stroke="#000000" points="1053.4192,-475.9388 1053.4192,-497.9388 1180.4192,-497.9388 1180.4192,-475.9388 1053.4192,-475.9388"/>
<text text-anchor="start" x="1058.1872" y="-483.9388" font-family="Times,serif" font-size="10.00" fill="#000000">sequenceNumber: NUMBER</text>
<polygon fill="none" stroke="#000000" points="1053.4192,-453.9388 1053.4192,-475.9388 1180.4192,-475.9388 1180.4192,-453.9388 1053.4192,-453.9388"/>
<text text-anchor="start" x="1058.4192" y="-461.9388" font-family="Times,serif" font-size="10.00" fill="#000000">createdAt: DATE</text>
<polygon fill="none" stroke="#000000" points="1053.4192,-431.9388 1053.4192,-453.9388 1180.4192,-453.9388 1180.4192,-431.9388 1053.4192,-431.9388"/>
<text text-anchor="start" x="1058.4192" y="-439.9388" font-family="Times,serif" font-size="10.00" fill="#000000">updatedAt: DATE</text>
<polygon fill="none" stroke="#000000" points="1053.4192,-409.9388 1053.4192,-431.9388 1180.4192,-431.9388 1180.4192,-409.9388 1053.4192,-409.9388"/>
<text text-anchor="start" x="1058.4192" y="-417.9388" font-family="Times,serif" font-size="10.00" fill="#000000">LearningPathId: UUID</text>
</g>
<!-- LearningPathResource&#45;&gt;LearningPath -->
<g id="edge12" class="edge">
<title>LearningPathResource&#45;&gt;LearningPath</title>
<path fill="none" stroke="#000000" stroke-width=".75" d="M1046.4376,-530.9388C1022.8988,-530.9388 997.0779,-530.9388 975.1961,-530.9388"/>
<polygon fill="#000000" stroke="#000000" stroke-width=".75" points="1046.6889,-530.9389 1052.6889,-533.6388 1049.6889,-530.9389 1052.6889,-530.9388 1052.6889,-530.9388 1052.6889,-530.9388 1049.6889,-530.9389 1052.6888,-528.2388 1046.6889,-530.9389 1046.6889,-530.9389"/>
</g>
<!-- Tag -->
<g id="node9" class="node">
<title>Tag</title>
<polygon fill="#add8e6" stroke="transparent" points="207.7614,-953.4527 207.7614,-975.4527 290.7614,-975.4527 290.7614,-953.4527 207.7614,-953.4527"/>
<polygon fill="none" stroke="#000000" points="207.7614,-953.4527 207.7614,-975.4527 290.7614,-975.4527 290.7614,-953.4527 207.7614,-953.4527"/>
<text text-anchor="start" x="241.4874" y="-961.4527" font-family="Times,serif" font-size="10.00" fill="#000000">Tag</text>
<polygon fill="none" stroke="#000000" points="207.7614,-931.4527 207.7614,-953.4527 290.7614,-953.4527 290.7614,-931.4527 207.7614,-931.4527"/>
<text text-anchor="start" x="212.7614" y="-939.4527" font-family="Times,serif" font-size="10.00" fill="#000000">id: UUID</text>
<polygon fill="none" stroke="#000000" points="207.7614,-909.4527 207.7614,-931.4527 290.7614,-931.4527 290.7614,-909.4527 207.7614,-909.4527"/>
<text text-anchor="start" x="212.7614" y="-917.4527" font-family="Times,serif" font-size="10.00" fill="#000000">name: STRING</text>
<polygon fill="none" stroke="#000000" points="207.7614,-887.4527 207.7614,-909.4527 290.7614,-909.4527 290.7614,-887.4527 207.7614,-887.4527"/>
<text text-anchor="start" x="212.7614" y="-895.4527" font-family="Times,serif" font-size="10.00" fill="#000000">createdAt: DATE</text>
<polygon fill="none" stroke="#000000" points="207.7614,-865.4527 207.7614,-887.4527 290.7614,-887.4527 290.7614,-865.4527 207.7614,-865.4527"/>
<text text-anchor="start" x="212.4664" y="-873.4527" font-family="Times,serif" font-size="10.00" fill="#000000">updatedAt: DATE</text>
</g>
<!-- Tag&#45;&gt;LearningBucketTag -->
<g id="edge4" class="edge">
<title>Tag&#45;&gt;LearningBucketTag</title>
<path fill="none" stroke="#000000" stroke-width=".75" d="M290.5724,-927.8251C342.5225,-936.9853 431.5615,-952.6853 491.0326,-963.1716"/>
<polygon fill="#000000" stroke="#000000" stroke-width=".75" points="491.1437,-963.1912 496.5837,-966.8921 494.0981,-963.7121 497.0526,-964.2331 497.0526,-964.2331 497.0526,-964.2331 494.0981,-963.7121 497.5215,-961.5741 491.1437,-963.1912 491.1437,-963.1912"/>
</g>
<!-- Tag&#45;&gt;LearningPathTag -->
<g id="edge3" class="edge">
<title>Tag&#45;&gt;LearningPathTag</title>
<path fill="none" stroke="#000000" stroke-width=".75" d="M207.0629,-870.7584C177.2256,-835.1996 136.8044,-787.0276 104.5756,-748.6188"/>
<polygon fill="#000000" stroke="#000000" stroke-width=".75" points="104.5439,-748.581 102.7555,-742.2492 102.6155,-746.2828 100.6871,-743.9847 100.6871,-743.9847 100.6871,-743.9847 102.6155,-746.2828 98.6188,-745.7202 104.5439,-748.581 104.5439,-748.581"/>
</g>
<!-- Upvotes -->
<g id="node10" class="node">
<title>Upvotes</title>
<polygon fill="#add8e6" stroke="transparent" points="500.7494,-154 500.7494,-176 602.7494,-176 602.7494,-154 500.7494,-154"/>
<polygon fill="none" stroke="#000000" points="500.7494,-154 500.7494,-176 602.7494,-176 602.7494,-154 500.7494,-154"/>
<text text-anchor="start" x="535.0864" y="-162" font-family="Times,serif" font-size="10.00" fill="#000000">Upvotes</text>
<polygon fill="none" stroke="#000000" points="500.7494,-132 500.7494,-154 602.7494,-154 602.7494,-132 500.7494,-132"/>
<text text-anchor="start" x="505.7494" y="-140" font-family="Times,serif" font-size="10.00" fill="#000000">id: UUID</text>
<polygon fill="none" stroke="#000000" points="500.7494,-110 500.7494,-132 602.7494,-132 602.7494,-110 500.7494,-110"/>
<text text-anchor="start" x="505.7494" y="-118" font-family="Times,serif" font-size="10.00" fill="#000000">userId: UUID</text>
<polygon fill="none" stroke="#000000" points="500.7494,-88 500.7494,-110 602.7494,-110 602.7494,-88 500.7494,-88"/>
<text text-anchor="start" x="505.7494" y="-96" font-family="Times,serif" font-size="10.00" fill="#000000">learningPathId: UUID</text>
<polygon fill="none" stroke="#000000" points="500.7494,-66 500.7494,-88 602.7494,-88 602.7494,-66 500.7494,-66"/>
<text text-anchor="start" x="505.7494" y="-74" font-family="Times,serif" font-size="10.00" fill="#000000">createdAt: DATE</text>
<polygon fill="none" stroke="#000000" points="500.7494,-44 500.7494,-66 602.7494,-66 602.7494,-44 500.7494,-44"/>
<text text-anchor="start" x="505.7494" y="-52" font-family="Times,serif" font-size="10.00" fill="#000000">updatedAt: DATE</text>
<polygon fill="none" stroke="#000000" points="500.7494,-22 500.7494,-44 602.7494,-44 602.7494,-22 500.7494,-22"/>
<text text-anchor="start" x="505.5164" y="-30" font-family="Times,serif" font-size="10.00" fill="#000000">LearningPathId: UUID</text>
<polygon fill="none" stroke="#000000" points="500.7494,0 500.7494,-22 602.7494,-22 602.7494,0 500.7494,0"/>
<text text-anchor="start" x="505.7494" y="-8" font-family="Times,serif" font-size="10.00" fill="#000000">UserId: UUID</text>
</g>
<!-- Upvotes&#45;&gt;LearningPath -->
<g id="edge13" class="edge">
<title>Upvotes&#45;&gt;LearningPath</title>
<path fill="none" stroke="#000000" stroke-width=".75" d="M607.0362,-153.8883C678.5233,-239.0833 802.09,-386.3443 871.7611,-469.3751"/>
<polygon fill="#000000" stroke="#000000" stroke-width=".75" points="606.895,-153.72 605.1066,-147.3882 604.9666,-151.4218 603.0382,-149.1237 603.0382,-149.1237 603.0382,-149.1237 604.9666,-151.4218 600.9699,-150.8592 606.895,-153.72 606.895,-153.72"/>
</g>
<!-- Upvotes&#45;&gt;User -->
<g id="edge14" class="edge">
<title>Upvotes&#45;&gt;User</title>
<path fill="none" stroke="#000000" stroke-width=".75" d="M494.4732,-98.0993C439.585,-107.7776 357.3321,-122.281 303.3572,-131.7982"/>
<polygon fill="#000000" stroke="#000000" stroke-width=".75" points="494.7854,-98.0444 501.1631,-99.6614 497.7398,-97.5234 500.6942,-97.0024 500.6942,-97.0024 500.6942,-97.0024 497.7398,-97.5234 500.2253,-94.3434 494.7854,-98.0444 494.7854,-98.0444"/>
</g>
<!-- UserSession -->
<g id="node12" class="node">
<title>UserSession</title>
<polygon fill="#add8e6" stroke="transparent" points="1031.6473,-173.9388 1031.6473,-195.9388 1111.6473,-195.9388 1111.6473,-173.9388 1031.6473,-173.9388"/>
<polygon fill="none" stroke="#000000" points="1031.6473,-173.9388 1031.6473,-195.9388 1111.6473,-195.9388 1111.6473,-173.9388 1031.6473,-173.9388"/>
<text text-anchor="start" x="1046.9318" y="-181.9388" font-family="Times,serif" font-size="10.00" fill="#000000">UserSession</text>
<polygon fill="none" stroke="#000000" points="1031.6473,-151.9388 1031.6473,-173.9388 1111.6473,-173.9388 1111.6473,-151.9388 1031.6473,-151.9388"/>
<text text-anchor="start" x="1036.6473" y="-159.9388" font-family="Times,serif" font-size="10.00" fill="#000000">id: UUID</text>
<polygon fill="none" stroke="#000000" points="1031.6473,-129.9388 1031.6473,-151.9388 1111.6473,-151.9388 1111.6473,-129.9388 1031.6473,-129.9388"/>
<text text-anchor="start" x="1036.6473" y="-137.9388" font-family="Times,serif" font-size="10.00" fill="#000000">userId: UUID</text>
<polygon fill="none" stroke="#000000" points="1031.6473,-107.9388 1031.6473,-129.9388 1111.6473,-129.9388 1111.6473,-107.9388 1031.6473,-107.9388"/>
<text text-anchor="start" x="1036.2433" y="-115.9388" font-family="Times,serif" font-size="10.00" fill="#000000">expiresAt: DATE</text>
<polygon fill="none" stroke="#000000" points="1031.6473,-85.9388 1031.6473,-107.9388 1111.6473,-107.9388 1111.6473,-85.9388 1031.6473,-85.9388"/>
<text text-anchor="start" x="1036.2488" y="-93.9388" font-family="Times,serif" font-size="10.00" fill="#000000">createdAt: DATE</text>
</g>
</g>
</svg>
